<svg xmlns="http://www.w3.org/2000/svg" viewBox="0 0 1200 800" width="1200" height="800" role="img" aria-label="Architectural study of the property">
  <defs>
    <linearGradient id="sky" x1="0" y1="0" x2="0" y2="1">
      <stop offset="0%" stop-color="#C98FA0"/>
      <stop offset="100%" stop-color="#C98FA0"/>
    </linearGradient>
    <clipPath id="frame"><rect width="1200" height="800"/></clipPath>
  </defs>
  <g clip-path="url(#frame)">
    <rect width="1200" height="800" fill="url(#sky)"/>
    <path d="M 753.8 416.8 Q 773 281.3 768.8 145.7 L 777.3 145.7 Q 788.2 281.3 772.8 416.8 Z" fill="#DCC3CA" stroke="#1A0A0F" stroke-width="2.5" stroke-linejoin="round"/><path d="M 773 145.7 Q 718.3 98.4 681.8 135.7 Q 718.3 122.4 773 145.7 Z" fill="#EFDCE1" stroke="#1A0A0F" stroke-width="2.5" stroke-linejoin="round"/><path d="M 773 145.7 Q 724.9 78.9 692.8 110.3 Q 724.9 102.9 773 145.7 Z" fill="#EFDCE1" stroke="#1A0A0F" stroke-width="2.5" stroke-linejoin="round"/><path d="M 773 145.7 Q 738.2 63.1 715 89.9 Q 738.2 87.1 773 145.7 Z" fill="#EFDCE1" stroke="#1A0A0F" stroke-width="2.5" stroke-linejoin="round"/><path d="M 773 145.7 Q 756.4 53.4 745.3 77.2 Q 756.4 77.3 773 145.7 Z" fill="#EFDCE1" stroke="#1A0A0F" stroke-width="2.5" stroke-linejoin="round"/><path d="M 773 145.7 Q 776.9 51 779.4 74 Q 776.9 74.9 773 145.7 Z" fill="#EFDCE1" stroke="#1A0A0F" stroke-width="2.5" stroke-linejoin="round"/><path d="M 773 145.7 Q 796.8 56.2 812.7 80.9 Q 796.8 80.2 773 145.7 Z" fill="#EFDCE1" stroke="#1A0A0F" stroke-width="2.5" stroke-linejoin="round"/><path d="M 773 145.7 Q 813.5 68.4 840.4 96.7 Q 813.5 92.4 773 145.7 Z" fill="#EFDCE1" stroke="#1A0A0F" stroke-width="2.5" stroke-linejoin="round"/><path d="M 773 145.7 Q 824.5 85.9 858.8 119.4 Q 824.5 109.8 773 145.7 Z" fill="#EFDCE1" stroke="#1A0A0F" stroke-width="2.5" stroke-linejoin="round"/><path d="M 773 145.7 Q 828.3 106.1 865.2 145.7 Q 828.3 130.1 773 145.7 Z" fill="#EFDCE1" stroke="#1A0A0F" stroke-width="2.5" stroke-linejoin="round"/>
    <polygon points="798.5,467 583.9,431 583.4,290.5 805.1,317.6" fill="#EFDCE1" stroke="#1A0A0F" stroke-width="2.5" stroke-linejoin="round"/>
    <polygon points="891.9,458.6 876.5,456.2 880.2,395.2 895.9,397.4" fill="#EFDCE1" stroke="#1A0A0F" stroke-width="2.5" stroke-linejoin="round"/>
    <polygon points="683.6,303 675.2,302 677.5,160.3 686.2,161" fill="#EFDCE1" stroke="#1A0A0F" stroke-width="2.5" stroke-linejoin="round"/>
    <polygon points="675.2,302 671,303.8 673.2,161.5 677.5,160.3" fill="#EFDCE1" stroke="#1A0A0F" stroke-width="2.5" stroke-linejoin="round"/>
    <polygon points="679.4,304.9 683.6,303 686.2,161 681.9,162.2" fill="#EFDCE1" stroke="#1A0A0F" stroke-width="2.5" stroke-linejoin="round"/>
    <polygon points="714.7,920.9 1141.7,409.8 571,332.1 -165.6,646.1" fill="#EFDCE1" stroke="#1A0A0F" stroke-width="2.5" stroke-linejoin="round"/>
    <polygon points="671,303.8 679.4,304.9 681.9,162.2 673.2,161.5" fill="#EFDCE1" stroke="#1A0A0F" stroke-width="2.5" stroke-linejoin="round"/>
    <polygon points="805.1,317.6 674.7,301.6 675.5,249.5 807.5,263.5" fill="#EFDCE1" stroke="#1A0A0F" stroke-width="2.5" stroke-linejoin="round"/>
    <polygon points="681.9,162.2 686.2,161 677.5,160.3 673.2,161.5" fill="#FFFBFC" stroke="#1A0A0F" stroke-width="2.5" stroke-linejoin="round"/>
    <polygon points="674.7,301.6 601.4,334 601.4,277.9 675.5,249.5" fill="#EFDCE1" stroke="#1A0A0F" stroke-width="2.5" stroke-linejoin="round"/>
    <polygon points="819.8,170.2 674.3,158.9 674.4,149.2 820.3,160.1" fill="#EFDCE1" stroke="#1A0A0F" stroke-width="2.5" stroke-linejoin="round"/>
    <polygon points="583.9,431 373.2,543.4 364.7,375.6 583.4,290.5" fill="#EFDCE1" stroke="#1A0A0F" stroke-width="2.5" stroke-linejoin="round"/>
    <polygon points="803.5,317.7 794.5,316.6 800.6,169.9 810,170.6" fill="#EFDCE1" stroke="#1A0A0F" stroke-width="2.5" stroke-linejoin="round"/>
    <polygon points="794.5,316.6 790.7,318.6 796.8,171.2 800.6,169.9" fill="#EFDCE1" stroke="#1A0A0F" stroke-width="2.5" stroke-linejoin="round"/>
    <polygon points="799.8,319.7 803.5,317.7 810,170.6 806.2,171.9" fill="#EFDCE1" stroke="#1A0A0F" stroke-width="2.5" stroke-linejoin="round"/>
    <polygon points="790.7,318.6 799.8,319.7 806.2,171.9 796.8,171.2" fill="#EFDCE1" stroke="#1A0A0F" stroke-width="2.5" stroke-linejoin="round"/>
    <polygon points="745.9,264.4 706.9,260.1 707.5,235.9 746.6,239.9" fill="#8E4257" stroke="#1A0A0F" stroke-width="2" stroke-linejoin="round"/>
    <polygon points="714.7,236.7 708,236 708.7,205.4 715.4,206" fill="#8E4257" stroke="#1A0A0F" stroke-width="2" stroke-linejoin="round"/>
    <polygon points="637.1,648.9 890.4,446.1 710.9,417.9 412.4,596.4" fill="#EFDCE1" stroke="#1A0A0F" stroke-width="2.5" stroke-linejoin="round"/>
    <polygon points="674.3,158.9 592.5,181.8 592.5,171.3 674.4,149.2" fill="#EFDCE1" stroke="#1A0A0F" stroke-width="2.5" stroke-linejoin="round"/>
    <polygon points="741.6,294.4 807.5,263.5 675.5,249.5 601.4,277.9" fill="#FFFBFC" stroke="#1A0A0F" stroke-width="2.5" stroke-linejoin="round"/>
    <polygon points="806.2,171.9 810,170.6 800.6,169.9 796.8,171.2" fill="#FFFBFC" stroke="#1A0A0F" stroke-width="2.5" stroke-linejoin="round"/>
    <polygon points="706.9,260.1 665.7,277 666.1,251.7 707.5,235.9" fill="#8E4257" stroke="#1A0A0F" stroke-width="2" stroke-linejoin="round"/>
    <polygon points="708,236 666.7,251.8 667.1,219.8 708.7,205.4" fill="#8E4257" stroke="#1A0A0F" stroke-width="2" stroke-linejoin="round"/>
    <polygon points="673.6,252.5 714.7,236.7 715.4,206 674.1,220.4" fill="#8E4257" stroke="#1A0A0F" stroke-width="2" stroke-linejoin="round"/>
    <polygon points="706.7,256 746.6,239.9 707.5,235.9 666.1,251.7" fill="#8E4257" stroke="#1A0A0F" stroke-width="2" stroke-linejoin="round"/>
    <polygon points="739.8,352.8 805.1,317.6 807.5,263.5 741.6,294.4" fill="#EFDCE1" stroke="#1A0A0F" stroke-width="2.5" stroke-linejoin="round"/>
    <polygon points="674.1,220.4 715.4,206 708.7,205.4 667.1,219.8" fill="#8E4257" stroke="#1A0A0F" stroke-width="2" stroke-linejoin="round"/>
    <polygon points="706.1,281.6 745.9,264.4 746.6,239.9 706.7,256" fill="#8E4257" stroke="#1A0A0F" stroke-width="2" stroke-linejoin="round"/>
    <polygon points="616.8,332.9 607.9,331.8 608.2,179.9 617.3,180.7" fill="#EFDCE1" stroke="#1A0A0F" stroke-width="2.5" stroke-linejoin="round"/>
    <polygon points="628.9,341.3 498.4,323.5 495,168.1 629.9,179.5" fill="#EFDCE1" stroke="#1A0A0F" stroke-width="2.5" stroke-linejoin="round"/>
    <polygon points="602.5,315.6 526.5,305.7 525,208.9 602.6,216.5" fill="#1A0A0F" stroke="#1A0A0F" stroke-width="2" stroke-linejoin="round"/>
    <polygon points="607.9,331.8 603.1,333.9 603.2,181.3 608.2,179.9" fill="#EFDCE1" stroke="#1A0A0F" stroke-width="2.5" stroke-linejoin="round"/>
    <polygon points="748.5,184.3 820.3,160.1 674.4,149.2 592.5,171.3" fill="#FFFBFC" stroke="#1A0A0F" stroke-width="2.5" stroke-linejoin="round"/>
    <polygon points="611.9,335.1 616.8,332.9 617.3,180.7 612.3,182.1" fill="#EFDCE1" stroke="#1A0A0F" stroke-width="2.5" stroke-linejoin="round"/>
    <polygon points="603.1,333.9 611.9,335.1 612.3,182.1 603.2,181.3" fill="#EFDCE1" stroke="#1A0A0F" stroke-width="2.5" stroke-linejoin="round"/>
    <polygon points="621.1,416.8 805.1,317.6 583.4,290.5 364.7,375.6" fill="#FFFBFC" stroke="#1A0A0F" stroke-width="2.5" stroke-linejoin="round"/>
    <polygon points="601.4,334 739.8,352.8 741.6,294.4 601.4,277.9" fill="#EFDCE1" stroke="#1A0A0F" stroke-width="2.5" stroke-linejoin="round"/>
    <polygon points="665.7,277 706.1,281.6 706.7,256 666.1,251.7" fill="#8E4257" stroke="#1A0A0F" stroke-width="2" stroke-linejoin="round"/>
    <polygon points="666.7,251.8 673.6,252.5 674.1,220.4 667.1,219.8" fill="#8E4257" stroke="#1A0A0F" stroke-width="2" stroke-linejoin="round"/>
    <polygon points="612.3,182.1 617.3,180.7 608.2,179.9 603.2,181.3" fill="#FFFBFC" stroke="#1A0A0F" stroke-width="2.5" stroke-linejoin="round"/>
    <polygon points="748.1,195.3 819.8,170.2 820.3,160.1 748.5,184.3" fill="#EFDCE1" stroke="#1A0A0F" stroke-width="2.5" stroke-linejoin="round"/>
    <polygon points="876.5,456.2 669.4,621.7 670.7,544.8 880.2,395.2" fill="#EFDCE1" stroke="#1A0A0F" stroke-width="2.5" stroke-linejoin="round"/>
    <polygon points="706.2,510.3 741.3,485.6 744,399.7 708.3,421.1" fill="#1A0A0F" stroke="#1A0A0F" stroke-width="2" stroke-linejoin="round"/>
    <polygon points="688.4,625.9 891.9,458.6 895.9,397.4 689.9,548.6" fill="#EFDCE1" stroke="#1A0A0F" stroke-width="2.5" stroke-linejoin="round"/>
    <polygon points="620.2,597.4 798.5,467 805.1,317.6 621.1,416.8" fill="#EFDCE1" stroke="#1A0A0F" stroke-width="2.5" stroke-linejoin="round"/>
    <polygon points="498.4,323.5 373,372.3 364.5,199.6 495,168.1" fill="#EFDCE1" stroke="#1A0A0F" stroke-width="2.5" stroke-linejoin="round"/>
    <polygon points="689.9,548.6 895.9,397.4 880.2,395.2 670.7,544.8" fill="#FFFBFC" stroke="#1A0A0F" stroke-width="2.5" stroke-linejoin="round"/>
    <polygon points="743.5,350 733.9,348.7 738.5,191.1 748.4,192" fill="#EFDCE1" stroke="#1A0A0F" stroke-width="2.5" stroke-linejoin="round"/>
    <polygon points="733.9,348.7 729.6,351 734,192.6 738.5,191.1" fill="#EFDCE1" stroke="#1A0A0F" stroke-width="2.5" stroke-linejoin="round"/>
    <polygon points="737.4,356.2 725.3,354.5 726.9,295.9 739.1,297.4" fill="#EFDCE1" stroke="#1A0A0F" stroke-width="2.5" stroke-linejoin="round"/>
    <polygon points="739.2,352.3 743.5,350 748.4,192 744,193.5" fill="#EFDCE1" stroke="#1A0A0F" stroke-width="2.5" stroke-linejoin="round"/>
    <polygon points="729.6,351 739.2,352.3 744,193.5 734,192.6" fill="#EFDCE1" stroke="#1A0A0F" stroke-width="2.5" stroke-linejoin="round"/>
    <polygon points="592.5,181.8 748.1,195.3 748.5,184.3 592.5,171.3" fill="#EFDCE1" stroke="#1A0A0F" stroke-width="2.5" stroke-linejoin="round"/>
    <polygon points="744,193.5 748.4,192 738.5,191.1 734,192.6" fill="#FFFBFC" stroke="#1A0A0F" stroke-width="2.5" stroke-linejoin="round"/>
    <polygon points="510.1,214.2 629.9,179.5 495,168.1 364.5,199.6" fill="#FFFBFC" stroke="#1A0A0F" stroke-width="2.5" stroke-linejoin="round"/>
    <polygon points="513.5,394.7 628.9,341.3 629.9,179.5 510.1,214.2" fill="#EFDCE1" stroke="#1A0A0F" stroke-width="2.5" stroke-linejoin="round"/>
    <polygon points="529.7,367.1 617.6,328.2 618,217.1 527.9,246.4" fill="#1A0A0F" stroke="#1A0A0F" stroke-width="2" stroke-linejoin="round"/>
    <polygon points="643.3,554.5 683.6,526.1 685.4,434.8 644.2,459.5" fill="#1A0A0F" stroke="#1A0A0F" stroke-width="2" stroke-linejoin="round"/>
    <polygon points="649.8,576.2 678,555.6 680.3,429.3 651.3,446.4" fill="#8E4257" stroke="#1A0A0F" stroke-width="2.5" stroke-linejoin="round"/>
    <polygon points="725.3,354.5 618.3,411.4 618.6,346 726.9,295.9" fill="#EFDCE1" stroke="#1A0A0F" stroke-width="2.5" stroke-linejoin="round"/>
    <polygon points="373.2,543.4 620.2,597.4 621.1,416.8 364.7,375.6" fill="#EFDCE1" stroke="#1A0A0F" stroke-width="2.5" stroke-linejoin="round"/>
    <polygon points="631.5,413.5 737.4,356.2 739.1,297.4 632,347.9" fill="#EFDCE1" stroke="#1A0A0F" stroke-width="2.5" stroke-linejoin="round"/>
    <polygon points="632,347.9 739.1,297.4 726.9,295.9 618.6,346" fill="#FFFBFC" stroke="#1A0A0F" stroke-width="2.5" stroke-linejoin="round"/>
    <polygon points="373,372.3 513.5,394.7 510.1,214.2 364.5,199.6" fill="#EFDCE1" stroke="#1A0A0F" stroke-width="2.5" stroke-linejoin="round"/>
    <polygon points="618.3,411.4 631.5,413.5 632,347.9 618.6,346" fill="#EFDCE1" stroke="#1A0A0F" stroke-width="2.5" stroke-linejoin="round"/>
    <polygon points="669.4,621.7 688.4,625.9 689.9,548.6 670.7,544.8" fill="#EFDCE1" stroke="#1A0A0F" stroke-width="2.5" stroke-linejoin="round"/>
    <path d="M 466.6 643 Q 490.3 476.2 463.7 309.5 L 474.2 309.5 Q 509 476.2 490 643 Z" fill="#DCC3CA" stroke="#1A0A0F" stroke-width="2.5" stroke-linejoin="round"/><path d="M 468.9 309.5 Q 401.5 251.2 356.6 297.2 Q 401.5 280.7 468.9 309.5 Z" fill="#EFDCE1" stroke="#1A0A0F" stroke-width="2.5" stroke-linejoin="round"/><path d="M 468.9 309.5 Q 409.7 227.2 370.2 265.9 Q 409.7 256.7 468.9 309.5 Z" fill="#EFDCE1" stroke="#1A0A0F" stroke-width="2.5" stroke-linejoin="round"/><path d="M 468.9 309.5 Q 426.1 207.8 397.6 240.7 Q 426.1 237.3 468.9 309.5 Z" fill="#EFDCE1" stroke="#1A0A0F" stroke-width="2.5" stroke-linejoin="round"/><path d="M 468.9 309.5 Q 448.5 195.8 434.8 225.1 Q 448.5 225.3 468.9 309.5 Z" fill="#EFDCE1" stroke="#1A0A0F" stroke-width="2.5" stroke-linejoin="round"/><path d="M 468.9 309.5 Q 473.7 192.8 476.8 221.2 Q 473.7 222.3 468.9 309.5 Z" fill="#EFDCE1" stroke="#1A0A0F" stroke-width="2.5" stroke-linejoin="round"/><path d="M 468.9 309.5 Q 498.2 199.3 517.8 229.6 Q 498.2 228.8 468.9 309.5 Z" fill="#EFDCE1" stroke="#1A0A0F" stroke-width="2.5" stroke-linejoin="round"/><path d="M 468.9 309.5 Q 518.7 214.3 551.9 249.1 Q 518.7 243.8 468.9 309.5 Z" fill="#EFDCE1" stroke="#1A0A0F" stroke-width="2.5" stroke-linejoin="round"/><path d="M 468.9 309.5 Q 532.2 235.8 574.4 277.1 Q 532.2 265.3 468.9 309.5 Z" fill="#EFDCE1" stroke="#1A0A0F" stroke-width="2.5" stroke-linejoin="round"/><path d="M 468.9 309.5 Q 537 260.7 582.3 309.5 Q 537 290.2 468.9 309.5 Z" fill="#EFDCE1" stroke="#1A0A0F" stroke-width="2.5" stroke-linejoin="round"/>
  </g>
</svg>
