<svg xmlns="http://www.w3.org/2000/svg" viewBox="0 0 1200 800" width="1200" height="800" role="img" aria-label="Architectural study of the property">
  <defs>
    <linearGradient id="sky" x1="0" y1="0" x2="0" y2="1">
      <stop offset="0%" stop-color="#66714F"/>
      <stop offset="78%" stop-color="#F5F1EA"/>
    </linearGradient>
    <clipPath id="frame"><rect width="1200" height="800"/></clipPath>
  </defs>
  <g clip-path="url(#frame)">
    <rect width="1200" height="800" fill="url(#sky)"/>
    <polygon points="634.3,323.9 611,317.2 611,301.5 634.4,308" fill="#9C4F32" stroke="#1C1A17" stroke-width="2" stroke-linejoin="round"/>
    <polygon points="633.9,307.9 630.2,306.8 630.3,286.8 634.2,287.8" fill="#9C4F32" stroke="#1C1A17" stroke-width="2" stroke-linejoin="round"/>
    <polygon points="611,317.2 557.1,336.5 556.8,320.3 611,301.5" fill="#9C4F32" stroke="#1C1A17" stroke-width="2" stroke-linejoin="round"/>
    <polygon points="611,301.5 556.8,320.3 580.4,327.3 634.4,308" fill="#9C4F32" stroke="#1C1A17" stroke-width="2" stroke-linejoin="round"/>
    <polygon points="580.6,343.7 634.3,323.9 634.4,308 580.4,327.3" fill="#9C4F32" stroke="#1C1A17" stroke-width="2" stroke-linejoin="round"/>
    <polygon points="630.2,306.8 576.1,326 576,305.3 630.3,286.8" fill="#9C4F32" stroke="#1C1A17" stroke-width="2" stroke-linejoin="round"/>
    <polygon points="659.8,335.9 653.9,334.2 655.3,251.7 661.3,253.2" fill="#E4E4E4" stroke="#1C1A17" stroke-width="2.5" stroke-linejoin="round"/>
    <polygon points="580,327.1 633.9,307.9 634.2,287.8 579.8,306.4" fill="#9C4F32" stroke="#1C1A17" stroke-width="2" stroke-linejoin="round"/>
    <polygon points="653.9,334.2 649,336.1 650.2,253.3 655.3,251.7" fill="#E4E4E4" stroke="#1C1A17" stroke-width="2.5" stroke-linejoin="round"/>
    <polygon points="630.3,286.8 576,305.3 579.8,306.4 634.2,287.8" fill="#9C4F32" stroke="#1C1A17" stroke-width="2" stroke-linejoin="round"/>
    <polygon points="654.9,337.9 659.8,335.9 661.3,253.2 656.3,254.8" fill="#E4E4E4" stroke="#1C1A17" stroke-width="2.5" stroke-linejoin="round"/>
    <polygon points="649,336.1 654.9,337.9 656.3,254.8 650.2,253.3" fill="#E4E4E4" stroke="#1C1A17" stroke-width="2.5" stroke-linejoin="round"/>
    <polygon points="557.1,336.5 580.6,343.7 580.4,327.3 556.8,320.3" fill="#9C4F32" stroke="#1C1A17" stroke-width="2" stroke-linejoin="round"/>
    <polygon points="655.3,251.7 650.2,253.3 656.3,254.8 661.3,253.2" fill="#FFFFFF" stroke="#1C1A17" stroke-width="2.5" stroke-linejoin="round"/>
    <polygon points="576.1,326 580,327.1 579.8,306.4 576,305.3" fill="#9C4F32" stroke="#1C1A17" stroke-width="2" stroke-linejoin="round"/>
    <path d="M 782 354.6 Q 799.9 228.7 802 102.8 L 809.9 102.8 Q 814 228.7 799.6 354.6 Z" fill="#C3C3C3" stroke="#1C1A17" stroke-width="2.5" stroke-linejoin="round"/><path d="M 806 102.8 Q 755.1 58.9 721.2 93.5 Q 755.1 81.1 806 102.8 Z" fill="#E4E4E4" stroke="#1C1A17" stroke-width="2.5" stroke-linejoin="round"/><path d="M 806 102.8 Q 761.3 40.7 731.5 69.9 Q 761.3 63 806 102.8 Z" fill="#E4E4E4" stroke="#1C1A17" stroke-width="2.5" stroke-linejoin="round"/><path d="M 806 102.8 Q 773.7 26.1 752.1 50.9 Q 773.7 48.3 806 102.8 Z" fill="#E4E4E4" stroke="#1C1A17" stroke-width="2.5" stroke-linejoin="round"/><path d="M 806 102.8 Q 790.5 17 780.2 39.1 Q 790.5 39.3 806 102.8 Z" fill="#E4E4E4" stroke="#1C1A17" stroke-width="2.5" stroke-linejoin="round"/><path d="M 806 102.8 Q 809.6 14.8 812 36.2 Q 809.6 37 806 102.8 Z" fill="#E4E4E4" stroke="#1C1A17" stroke-width="2.5" stroke-linejoin="round"/><path d="M 806 102.8 Q 828.1 19.6 842.8 42.5 Q 828.1 41.9 806 102.8 Z" fill="#E4E4E4" stroke="#1C1A17" stroke-width="2.5" stroke-linejoin="round"/><path d="M 806 102.8 Q 843.5 31 868.6 57.3 Q 843.5 53.2 806 102.8 Z" fill="#E4E4E4" stroke="#1C1A17" stroke-width="2.5" stroke-linejoin="round"/><path d="M 806 102.8 Q 853.8 47.2 885.6 78.3 Q 853.8 69.4 806 102.8 Z" fill="#E4E4E4" stroke="#1C1A17" stroke-width="2.5" stroke-linejoin="round"/><path d="M 806 102.8 Q 857.3 66 891.6 102.8 Q 857.3 88.3 806 102.8 Z" fill="#E4E4E4" stroke="#1C1A17" stroke-width="2.5" stroke-linejoin="round"/>
    <polygon points="745.6,276.1 654.6,254.1 654.7,246.5 746,268.2" fill="#E4E4E4" stroke="#1C1A17" stroke-width="2.5" stroke-linejoin="round"/>
    <polygon points="654.6,254.1 565.2,282.8 565.1,274.7 654.7,246.5" fill="#E4E4E4" stroke="#1C1A17" stroke-width="2.5" stroke-linejoin="round"/>
    <polygon points="735.1,357.8 728.7,355.9 732.2,270.2 738.8,271.8" fill="#E4E4E4" stroke="#1C1A17" stroke-width="2.5" stroke-linejoin="round"/>
    <polygon points="728.7,355.9 723.9,358 727.2,272 732.2,270.2" fill="#E4E4E4" stroke="#1C1A17" stroke-width="2.5" stroke-linejoin="round"/>
    <polygon points="730.3,359.8 735.1,357.8 738.8,271.8 733.8,273.6" fill="#E4E4E4" stroke="#1C1A17" stroke-width="2.5" stroke-linejoin="round"/>
    <polygon points="723.9,358 730.3,359.8 733.8,273.6 727.2,272" fill="#E4E4E4" stroke="#1C1A17" stroke-width="2.5" stroke-linejoin="round"/>
    <polygon points="584.7,365 578.7,363.1 578.1,276.4 584.2,278" fill="#E4E4E4" stroke="#1C1A17" stroke-width="2.5" stroke-linejoin="round"/>
    <polygon points="578.7,363.1 573.2,365.2 572.4,278.2 578.1,276.4" fill="#E4E4E4" stroke="#1C1A17" stroke-width="2.5" stroke-linejoin="round"/>
    <polygon points="732.2,270.2 727.2,272 733.8,273.6 738.8,271.8" fill="#FFFFFF" stroke="#1C1A17" stroke-width="2.5" stroke-linejoin="round"/>
    <polygon points="579.2,367.1 584.7,365 584.2,278 578.5,279.8" fill="#E4E4E4" stroke="#1C1A17" stroke-width="2.5" stroke-linejoin="round"/>
    <polygon points="573.2,365.2 579.2,367.1 578.5,279.8 572.4,278.2" fill="#E4E4E4" stroke="#1C1A17" stroke-width="2.5" stroke-linejoin="round"/>
    <polygon points="654.7,246.5 565.1,274.7 658,299.6 746,268.2" fill="#FFFFFF" stroke="#1C1A17" stroke-width="2.5" stroke-linejoin="round"/>
    <polygon points="533.6,334.5 311.1,412.6 391.2,446.3 613.4,359.4" fill="#66714F" stroke="#1C1A17" stroke-width="2.5" stroke-linejoin="round"/>
    <polygon points="578.1,276.4 572.4,278.2 578.5,279.8 584.2,278" fill="#FFFFFF" stroke="#1C1A17" stroke-width="2.5" stroke-linejoin="round"/>
    <polygon points="577.5,297.6 200.4,423.9 435.7,533.8 808,362.3" fill="#E4E4E4" stroke="#1C1A17" stroke-width="2.5" stroke-linejoin="round"/>
    <polygon points="657.8,308.1 745.6,276.1 746,268.2 658,299.6" fill="#E4E4E4" stroke="#1C1A17" stroke-width="2.5" stroke-linejoin="round"/>
    <polygon points="565.2,282.8 657.8,308.1 658,299.6 565.1,274.7" fill="#E4E4E4" stroke="#1C1A17" stroke-width="2.5" stroke-linejoin="round"/>
    <polygon points="661.1,389.5 654.6,387.4 656.1,297.2 662.8,299" fill="#E4E4E4" stroke="#1C1A17" stroke-width="2.5" stroke-linejoin="round"/>
    <polygon points="654.6,387.4 649.1,389.7 650.5,299.2 656.1,297.2" fill="#E4E4E4" stroke="#1C1A17" stroke-width="2.5" stroke-linejoin="round"/>
    <polygon points="627.1,251.4 -91.1,475.7 499.7,868.6 1175.7,385.7" fill="#C3C3C3" stroke="#1C1A17" stroke-width="2.5" stroke-linejoin="round"/>
    <polygon points="655.7,391.9 661.1,389.5 662.8,299 657.2,301" fill="#E4E4E4" stroke="#1C1A17" stroke-width="2.5" stroke-linejoin="round"/>
    <polygon points="649.1,389.7 655.7,391.9 657.2,301 650.5,299.2" fill="#E4E4E4" stroke="#1C1A17" stroke-width="2.5" stroke-linejoin="round"/>
    <path d="M 848.5 400.9 Q 863.5 295.8 869.9 190.8 L 876.5 190.8 Q 875.2 295.8 863.3 400.9 Z" fill="#C3C3C3" stroke="#1C1A17" stroke-width="2.5" stroke-linejoin="round"/><path d="M 873.2 190.8 Q 830.7 154.1 802.5 183 Q 830.7 172.7 873.2 190.8 Z" fill="#E4E4E4" stroke="#1C1A17" stroke-width="2.5" stroke-linejoin="round"/><path d="M 873.2 190.8 Q 835.9 139 811 163.4 Q 835.9 157.5 873.2 190.8 Z" fill="#E4E4E4" stroke="#1C1A17" stroke-width="2.5" stroke-linejoin="round"/><path d="M 873.2 190.8 Q 846.2 126.8 828.2 147.5 Q 846.2 145.3 873.2 190.8 Z" fill="#E4E4E4" stroke="#1C1A17" stroke-width="2.5" stroke-linejoin="round"/><path d="M 873.2 190.8 Q 860.3 119.2 851.7 137.7 Q 860.3 137.8 873.2 190.8 Z" fill="#E4E4E4" stroke="#1C1A17" stroke-width="2.5" stroke-linejoin="round"/><path d="M 873.2 190.8 Q 876.2 117.3 878.2 135.2 Q 876.2 135.9 873.2 190.8 Z" fill="#E4E4E4" stroke="#1C1A17" stroke-width="2.5" stroke-linejoin="round"/><path d="M 873.2 190.8 Q 891.6 121.4 903.9 140.5 Q 891.6 140 873.2 190.8 Z" fill="#E4E4E4" stroke="#1C1A17" stroke-width="2.5" stroke-linejoin="round"/><path d="M 873.2 190.8 Q 904.5 130.9 925.4 152.8 Q 904.5 149.4 873.2 190.8 Z" fill="#E4E4E4" stroke="#1C1A17" stroke-width="2.5" stroke-linejoin="round"/><path d="M 873.2 190.8 Q 913.1 144.4 939.7 170.4 Q 913.1 162.9 873.2 190.8 Z" fill="#E4E4E4" stroke="#1C1A17" stroke-width="2.5" stroke-linejoin="round"/><path d="M 873.2 190.8 Q 916 160.1 944.6 190.8 Q 916 178.7 873.2 190.8 Z" fill="#E4E4E4" stroke="#1C1A17" stroke-width="2.5" stroke-linejoin="round"/>
    <polygon points="656.1,297.2 650.5,299.2 657.2,301 662.8,299" fill="#FFFFFF" stroke="#1C1A17" stroke-width="2.5" stroke-linejoin="round"/>
    <polygon points="604.6,384.4 541.4,410.2 539.3,307.4 604.6,285.7" fill="#1C1A17" stroke="#1C1A17" stroke-width="2" stroke-linejoin="round"/>
    <polygon points="755.3,431.7 617.8,386.7 618.4,263.8 761.9,300.2" fill="#E4E4E4" stroke="#1C1A17" stroke-width="2.5" stroke-linejoin="round"/>
    <polygon points="587.1,247 532,263.5 530.3,185.8 586.7,172" fill="#1C1A17" stroke="#1C1A17" stroke-width="2" stroke-linejoin="round"/>
    <polygon points="783.3,301.6 626.7,262.2 626.8,252.8 783.9,291.3" fill="#E4E4E4" stroke="#1C1A17" stroke-width="2.5" stroke-linejoin="round"/>
    <polygon points="617.8,386.7 441.7,459.4 434.4,322.6 618.4,263.8" fill="#E4E4E4" stroke="#1C1A17" stroke-width="2.5" stroke-linejoin="round"/>
    <polygon points="723.7,290.5 600.3,259.2 600.2,142.7 728.5,166.1" fill="#E4E4E4" stroke="#1C1A17" stroke-width="2.5" stroke-linejoin="round"/>
    <polygon points="693.6,263.4 631.5,248.3 632.1,179.9 695.6,192.7" fill="#1C1A17" stroke="#1C1A17" stroke-width="2" stroke-linejoin="round"/>
    <polygon points="542.4,416.8 508.6,430.7 505.5,329.9 540.5,318" fill="#9C4F32" stroke="#1C1A17" stroke-width="2.5" stroke-linejoin="round"/>
    <polygon points="744.7,164.7 590.1,136.8 590,125.9 745.2,152.8" fill="#E4E4E4" stroke="#1C1A17" stroke-width="2.5" stroke-linejoin="round"/>
    <polygon points="600.3,259.2 464.8,301.5 459.3,174.4 600.2,142.7" fill="#E4E4E4" stroke="#1C1A17" stroke-width="2.5" stroke-linejoin="round"/>
    <polygon points="590.1,136.8 426.5,172.6 425.8,160.5 590,125.9" fill="#E4E4E4" stroke="#1C1A17" stroke-width="2.5" stroke-linejoin="round"/>
    <polygon points="626.7,262.2 427.8,325.9 427.2,315.3 626.8,252.8" fill="#E4E4E4" stroke="#1C1A17" stroke-width="2.5" stroke-linejoin="round"/>
    <polygon points="527.3,415.9 456.4,444.7 451.2,336.8 524.8,312.3" fill="#1C1A17" stroke="#1C1A17" stroke-width="2" stroke-linejoin="round"/>
    <polygon points="521,266.8 478.2,279.6 475,199.3 519,188.5" fill="#1C1A17" stroke="#1C1A17" stroke-width="2" stroke-linejoin="round"/>
    <polygon points="618.4,263.8 434.4,322.6 581.5,370.4 761.9,300.2" fill="#FFFFFF" stroke="#1C1A17" stroke-width="2.5" stroke-linejoin="round"/>
    <polygon points="590,125.9 425.8,160.5 584.3,194.8 745.2,152.8" fill="#FFFFFF" stroke="#1C1A17" stroke-width="2.5" stroke-linejoin="round"/>
    <polygon points="600.2,142.7 459.3,174.4 590,203.2 728.5,166.1" fill="#FFFFFF" stroke="#1C1A17" stroke-width="2.5" stroke-linejoin="round"/>
    <polygon points="626.8,252.8 427.2,315.3 589,367.3 783.9,291.3" fill="#FFFFFF" stroke="#1C1A17" stroke-width="2.5" stroke-linejoin="round"/>
    <polygon points="582.5,517.9 755.3,431.7 761.9,300.2 581.5,370.4" fill="#E4E4E4" stroke="#1C1A17" stroke-width="2.5" stroke-linejoin="round"/>
    <polygon points="590.5,339.7 723.7,290.5 728.5,166.1 590,203.2" fill="#E4E4E4" stroke="#1C1A17" stroke-width="2.5" stroke-linejoin="round"/>
    <polygon points="464.8,301.5 590.5,339.7 590,203.2 459.3,174.4" fill="#E4E4E4" stroke="#1C1A17" stroke-width="2.5" stroke-linejoin="round"/>
    <polygon points="463.8,456.2 551.2,491.8 549.4,387.6 459.2,356.7" fill="#1C1A17" stroke="#1C1A17" stroke-width="2" stroke-linejoin="round"/>
    <polygon points="441.7,459.4 582.5,517.9 581.5,370.4 434.4,322.6" fill="#E4E4E4" stroke="#1C1A17" stroke-width="2.5" stroke-linejoin="round"/>
    <polygon points="584.4,208 744.7,164.7 745.2,152.8 584.3,194.8" fill="#E4E4E4" stroke="#1C1A17" stroke-width="2.5" stroke-linejoin="round"/>
    <polygon points="589.1,378.9 783.3,301.6 783.9,291.3 589,367.3" fill="#E4E4E4" stroke="#1C1A17" stroke-width="2.5" stroke-linejoin="round"/>
    <polygon points="426.5,172.6 584.4,208 584.3,194.8 425.8,160.5" fill="#E4E4E4" stroke="#1C1A17" stroke-width="2.5" stroke-linejoin="round"/>
    <polygon points="503.2,479.8 483.2,488.7 470.1,159.6 492.5,154.8" fill="#E4E4E4" stroke="#1C1A17" stroke-width="2.5" stroke-linejoin="round"/>
    <path d="M 317.8 518.2 Q 343.5 337.2 291.6 156.2 L 303 156.2 Q 363.7 337.2 343.1 518.2 Z" fill="#C3C3C3" stroke="#1C1A17" stroke-width="2.5" stroke-linejoin="round"/><path d="M 297.3 156.2 Q 224.2 93 175.4 142.8 Q 224.2 125 297.3 156.2 Z" fill="#E4E4E4" stroke="#1C1A17" stroke-width="2.5" stroke-linejoin="round"/><path d="M 297.3 156.2 Q 233 66.9 190.2 108.9 Q 233 98.9 297.3 156.2 Z" fill="#E4E4E4" stroke="#1C1A17" stroke-width="2.5" stroke-linejoin="round"/><path d="M 297.3 156.2 Q 250.8 45.9 219.8 81.6 Q 250.8 77.9 297.3 156.2 Z" fill="#E4E4E4" stroke="#1C1A17" stroke-width="2.5" stroke-linejoin="round"/><path d="M 297.3 156.2 Q 275.1 32.8 260.3 64.6 Q 275.1 64.9 297.3 156.2 Z" fill="#E4E4E4" stroke="#1C1A17" stroke-width="2.5" stroke-linejoin="round"/><path d="M 297.3 156.2 Q 302.4 29.6 305.9 60.4 Q 302.4 61.6 297.3 156.2 Z" fill="#E4E4E4" stroke="#1C1A17" stroke-width="2.5" stroke-linejoin="round"/><path d="M 297.3 156.2 Q 329.1 36.6 350.3 69.6 Q 329.1 68.6 297.3 156.2 Z" fill="#E4E4E4" stroke="#1C1A17" stroke-width="2.5" stroke-linejoin="round"/><path d="M 297.3 156.2 Q 351.3 52.9 387.3 90.7 Q 351.3 84.9 297.3 156.2 Z" fill="#E4E4E4" stroke="#1C1A17" stroke-width="2.5" stroke-linejoin="round"/><path d="M 297.3 156.2 Q 366 76.2 411.8 121 Q 366 108.2 297.3 156.2 Z" fill="#E4E4E4" stroke="#1C1A17" stroke-width="2.5" stroke-linejoin="round"/><path d="M 297.3 156.2 Q 371.1 103.3 420.4 156.2 Q 371.1 135.3 297.3 156.2 Z" fill="#E4E4E4" stroke="#1C1A17" stroke-width="2.5" stroke-linejoin="round"/>
    <polygon points="427.8,325.9 589.1,378.9 589,367.3 427.2,315.3" fill="#E4E4E4" stroke="#1C1A17" stroke-width="2.5" stroke-linejoin="round"/>
    <polygon points="567.3,506.2 503.2,479.8 492.5,154.8 563.4,169.1" fill="#E4E4E4" stroke="#1C1A17" stroke-width="2.5" stroke-linejoin="round"/>
    <polygon points="483.2,488.7 547.3,515.9 541,174.5 470.1,159.6" fill="#E4E4E4" stroke="#1C1A17" stroke-width="2.5" stroke-linejoin="round"/>
    <polygon points="547.3,515.9 567.3,506.2 563.4,169.1 541,174.5" fill="#E4E4E4" stroke="#1C1A17" stroke-width="2.5" stroke-linejoin="round"/>
    <polygon points="492.5,154.8 470.1,159.6 541,174.5 563.4,169.1" fill="#FFFFFF" stroke="#1C1A17" stroke-width="2.5" stroke-linejoin="round"/>
    <path d="M 554.9 577.7 Q 575.7 431.1 556.8 284.5 L 566.1 284.5 Q 592.1 431.1 575.4 577.7 Z" fill="#C3C3C3" stroke="#1C1A17" stroke-width="2.5" stroke-linejoin="round"/><path d="M 561.4 284.5 Q 502.2 233.3 462.7 273.7 Q 502.2 259.2 561.4 284.5 Z" fill="#E4E4E4" stroke="#1C1A17" stroke-width="2.5" stroke-linejoin="round"/><path d="M 561.4 284.5 Q 509.4 212.2 474.7 246.2 Q 509.4 238.1 561.4 284.5 Z" fill="#E4E4E4" stroke="#1C1A17" stroke-width="2.5" stroke-linejoin="round"/><path d="M 561.4 284.5 Q 523.8 195.1 498.7 224.1 Q 523.8 221.1 561.4 284.5 Z" fill="#E4E4E4" stroke="#1C1A17" stroke-width="2.5" stroke-linejoin="round"/><path d="M 561.4 284.5 Q 543.5 184.6 531.5 210.3 Q 543.5 210.5 561.4 284.5 Z" fill="#E4E4E4" stroke="#1C1A17" stroke-width="2.5" stroke-linejoin="round"/><path d="M 561.4 284.5 Q 565.6 182 568.4 206.9 Q 565.6 207.9 561.4 284.5 Z" fill="#E4E4E4" stroke="#1C1A17" stroke-width="2.5" stroke-linejoin="round"/><path d="M 561.4 284.5 Q 587.2 187.6 604.4 214.3 Q 587.2 213.6 561.4 284.5 Z" fill="#E4E4E4" stroke="#1C1A17" stroke-width="2.5" stroke-linejoin="round"/><path d="M 561.4 284.5 Q 605.2 200.8 634.3 231.5 Q 605.2 226.7 561.4 284.5 Z" fill="#E4E4E4" stroke="#1C1A17" stroke-width="2.5" stroke-linejoin="round"/><path d="M 561.4 284.5 Q 617.1 219.7 654.2 256 Q 617.1 245.6 561.4 284.5 Z" fill="#E4E4E4" stroke="#1C1A17" stroke-width="2.5" stroke-linejoin="round"/><path d="M 561.4 284.5 Q 621.3 241.6 661.1 284.5 Q 621.3 267.5 561.4 284.5 Z" fill="#E4E4E4" stroke="#1C1A17" stroke-width="2.5" stroke-linejoin="round"/>
  </g>
</svg>
