<svg xmlns="http://www.w3.org/2000/svg" viewBox="0 0 1200 800" width="1200" height="800" role="img" aria-label="Architectural study of the property">
  <defs>
    <linearGradient id="sky" x1="0" y1="0" x2="0" y2="1">
      <stop offset="0%" stop-color="#66714F"/>
      <stop offset="78%" stop-color="#F5F1EA"/>
    </linearGradient>
    <clipPath id="frame"><rect width="1200" height="800"/></clipPath>
  </defs>
  <g clip-path="url(#frame)">
    <rect width="1200" height="800" fill="url(#sky)"/>
    <polygon points="555.9,324.5 528.8,319.9 528.4,304.1 555.7,308.6" fill="#9C4F32" stroke="#1C1A17" stroke-width="2" stroke-linejoin="round"/>
    <polygon points="555.1,308.5 550.7,307.8 550.4,287.7 554.8,288.4" fill="#9C4F32" stroke="#1C1A17" stroke-width="2" stroke-linejoin="round"/>
    <polygon points="528.8,319.9 487.8,343.5 487.2,327.1 528.4,304.1" fill="#9C4F32" stroke="#1C1A17" stroke-width="2" stroke-linejoin="round"/>
    <polygon points="588.4,334 581.6,332.9 581.1,250.5 588,251.5" fill="#E4E4E4" stroke="#1C1A17" stroke-width="2.5" stroke-linejoin="round"/>
    <polygon points="528.4,304.1 487.2,327.1 515.4,332 555.7,308.6" fill="#9C4F32" stroke="#1C1A17" stroke-width="2" stroke-linejoin="round"/>
    <polygon points="581.6,332.9 578,335.1 577.4,252.5 581.1,250.5" fill="#E4E4E4" stroke="#1C1A17" stroke-width="2.5" stroke-linejoin="round"/>
    <path d="M 714.7 340.7 Q 732.2 217.9 728.9 95.2 L 736.7 95.2 Q 745.9 217.9 731.9 340.7 Z" fill="#C3C3C3" stroke="#1C1A17" stroke-width="2.5" stroke-linejoin="round"/><path d="M 732.8 95.2 Q 683.2 52.3 650.1 86.1 Q 683.2 74 732.8 95.2 Z" fill="#E4E4E4" stroke="#1C1A17" stroke-width="2.5" stroke-linejoin="round"/><path d="M 732.8 95.2 Q 689.2 34.7 660.1 63.1 Q 689.2 56.4 732.8 95.2 Z" fill="#E4E4E4" stroke="#1C1A17" stroke-width="2.5" stroke-linejoin="round"/><path d="M 732.8 95.2 Q 701.3 20.4 680.3 44.6 Q 701.3 42.1 732.8 95.2 Z" fill="#E4E4E4" stroke="#1C1A17" stroke-width="2.5" stroke-linejoin="round"/><path d="M 732.8 95.2 Q 717.7 11.6 707.7 33.1 Q 717.7 33.3 732.8 95.2 Z" fill="#E4E4E4" stroke="#1C1A17" stroke-width="2.5" stroke-linejoin="round"/><path d="M 732.8 95.2 Q 736.3 9.4 738.6 30.3 Q 736.3 31.1 732.8 95.2 Z" fill="#E4E4E4" stroke="#1C1A17" stroke-width="2.5" stroke-linejoin="round"/><path d="M 732.8 95.2 Q 754.3 14.1 768.7 36.4 Q 754.3 35.8 732.8 95.2 Z" fill="#E4E4E4" stroke="#1C1A17" stroke-width="2.5" stroke-linejoin="round"/><path d="M 732.8 95.2 Q 769.4 25.2 793.8 50.8 Q 769.4 46.9 732.8 95.2 Z" fill="#E4E4E4" stroke="#1C1A17" stroke-width="2.5" stroke-linejoin="round"/><path d="M 732.8 95.2 Q 779.4 41 810.4 71.3 Q 779.4 62.7 732.8 95.2 Z" fill="#E4E4E4" stroke="#1C1A17" stroke-width="2.5" stroke-linejoin="round"/><path d="M 732.8 95.2 Q 782.9 59.3 816.3 95.2 Q 782.9 81 732.8 95.2 Z" fill="#E4E4E4" stroke="#1C1A17" stroke-width="2.5" stroke-linejoin="round"/>
    <polygon points="515.9,348.5 555.9,324.5 555.7,308.6 515.4,332" fill="#9C4F32" stroke="#1C1A17" stroke-width="2" stroke-linejoin="round"/>
    <polygon points="584.8,336.3 588.4,334 588,251.5 584.4,253.5" fill="#E4E4E4" stroke="#1C1A17" stroke-width="2.5" stroke-linejoin="round"/>
    <polygon points="578,335.1 584.8,336.3 584.4,253.5 577.4,252.5" fill="#E4E4E4" stroke="#1C1A17" stroke-width="2.5" stroke-linejoin="round"/>
    <polygon points="550.7,307.8 510.3,331.1 509.7,310.2 550.4,287.7" fill="#9C4F32" stroke="#1C1A17" stroke-width="2" stroke-linejoin="round"/>
    <polygon points="514.9,331.9 555.1,308.5 554.8,288.4 514.3,310.9" fill="#9C4F32" stroke="#1C1A17" stroke-width="2" stroke-linejoin="round"/>
    <polygon points="550.4,287.7 509.7,310.2 514.3,310.9 554.8,288.4" fill="#9C4F32" stroke="#1C1A17" stroke-width="2" stroke-linejoin="round"/>
    <polygon points="581.1,250.5 577.4,252.5 584.4,253.5 588,251.5" fill="#FFFFFF" stroke="#1C1A17" stroke-width="2.5" stroke-linejoin="round"/>
    <polygon points="487.8,343.5 515.9,348.5 515.4,332 487.2,327.1" fill="#9C4F32" stroke="#1C1A17" stroke-width="2" stroke-linejoin="round"/>
    <polygon points="682,267.6 579.1,253 579.1,245.4 682.2,259.8" fill="#E4E4E4" stroke="#1C1A17" stroke-width="2.5" stroke-linejoin="round"/>
    <polygon points="673.6,348.5 666.5,347.3 668.2,262.8 675.6,263.9" fill="#E4E4E4" stroke="#1C1A17" stroke-width="2.5" stroke-linejoin="round"/>
    <polygon points="666.5,347.3 663.2,349.7 664.9,264.9 668.2,262.8" fill="#E4E4E4" stroke="#1C1A17" stroke-width="2.5" stroke-linejoin="round"/>
    <polygon points="670.4,350.9 673.6,348.5 675.6,263.9 672.2,265.9" fill="#E4E4E4" stroke="#1C1A17" stroke-width="2.5" stroke-linejoin="round"/>
    <polygon points="510.3,331.1 514.9,331.9 514.3,310.9 509.7,310.2" fill="#9C4F32" stroke="#1C1A17" stroke-width="2" stroke-linejoin="round"/>
    <polygon points="663.2,349.7 670.4,350.9 672.2,265.9 664.9,264.9" fill="#E4E4E4" stroke="#1C1A17" stroke-width="2.5" stroke-linejoin="round"/>
    <polygon points="668.2,262.8 664.9,264.9 672.2,265.9 675.6,263.9" fill="#FFFFFF" stroke="#1C1A17" stroke-width="2.5" stroke-linejoin="round"/>
    <polygon points="579.1,253 513.3,287.7 513.1,279.6 579.1,245.4" fill="#E4E4E4" stroke="#1C1A17" stroke-width="2.5" stroke-linejoin="round"/>
    <polygon points="579.1,245.4 513.1,279.6 622.7,296.5 682.2,259.8" fill="#FFFFFF" stroke="#1C1A17" stroke-width="2.5" stroke-linejoin="round"/>
    <polygon points="533.7,369 526.6,367.7 524.5,280.3 531.8,281.4" fill="#E4E4E4" stroke="#1C1A17" stroke-width="2.5" stroke-linejoin="round"/>
    <polygon points="526.6,367.7 522.5,370.2 520.3,282.5 524.5,280.3" fill="#E4E4E4" stroke="#1C1A17" stroke-width="2.5" stroke-linejoin="round"/>
    <polygon points="529.7,371.6 533.7,369 531.8,281.4 527.6,283.6" fill="#E4E4E4" stroke="#1C1A17" stroke-width="2.5" stroke-linejoin="round"/>
    <polygon points="522.5,370.2 529.7,371.6 527.6,283.6 520.3,282.5" fill="#E4E4E4" stroke="#1C1A17" stroke-width="2.5" stroke-linejoin="round"/>
    <path d="M 803.3 378.5 Q 817.6 277.2 820.7 175.9 L 827.1 175.9 Q 829 277.2 817.4 378.5 Z" fill="#C3C3C3" stroke="#1C1A17" stroke-width="2.5" stroke-linejoin="round"/><path d="M 823.9 175.9 Q 783 140.5 755.7 168.4 Q 783 158.4 823.9 175.9 Z" fill="#E4E4E4" stroke="#1C1A17" stroke-width="2.5" stroke-linejoin="round"/><path d="M 823.9 175.9 Q 788 125.9 764 149.4 Q 788 143.8 823.9 175.9 Z" fill="#E4E4E4" stroke="#1C1A17" stroke-width="2.5" stroke-linejoin="round"/><path d="M 823.9 175.9 Q 797.9 114.2 780.6 134.2 Q 797.9 132.1 823.9 175.9 Z" fill="#E4E4E4" stroke="#1C1A17" stroke-width="2.5" stroke-linejoin="round"/><path d="M 823.9 175.9 Q 811.5 106.9 803.2 124.7 Q 811.5 124.8 823.9 175.9 Z" fill="#E4E4E4" stroke="#1C1A17" stroke-width="2.5" stroke-linejoin="round"/><path d="M 823.9 175.9 Q 826.8 105.1 828.7 122.3 Q 826.8 123 823.9 175.9 Z" fill="#E4E4E4" stroke="#1C1A17" stroke-width="2.5" stroke-linejoin="round"/><path d="M 823.9 175.9 Q 841.7 109 853.6 127.4 Q 841.7 126.9 823.9 175.9 Z" fill="#E4E4E4" stroke="#1C1A17" stroke-width="2.5" stroke-linejoin="round"/><path d="M 823.9 175.9 Q 854.1 118.1 874.3 139.3 Q 854.1 136 823.9 175.9 Z" fill="#E4E4E4" stroke="#1C1A17" stroke-width="2.5" stroke-linejoin="round"/><path d="M 823.9 175.9 Q 862.4 131.1 888 156.2 Q 862.4 149 823.9 175.9 Z" fill="#E4E4E4" stroke="#1C1A17" stroke-width="2.5" stroke-linejoin="round"/><path d="M 823.9 175.9 Q 865.2 146.3 892.8 175.9 Q 865.2 164.2 823.9 175.9 Z" fill="#E4E4E4" stroke="#1C1A17" stroke-width="2.5" stroke-linejoin="round"/>
    <polygon points="622.7,304.9 682,267.6 682.2,259.8 622.7,296.5" fill="#E4E4E4" stroke="#1C1A17" stroke-width="2.5" stroke-linejoin="round"/>
    <polygon points="524.5,280.3 520.3,282.5 527.6,283.6 531.8,281.4" fill="#FFFFFF" stroke="#1C1A17" stroke-width="2.5" stroke-linejoin="round"/>
    <polygon points="483.4,303.4 170.3,468.5 495.9,550.8 744.3,346.5" fill="#E4E4E4" stroke="#1C1A17" stroke-width="2.5" stroke-linejoin="round"/>
    <polygon points="623.5,385.6 616,384.2 616.4,294.5 624.1,295.7" fill="#E4E4E4" stroke="#1C1A17" stroke-width="2.5" stroke-linejoin="round"/>
    <polygon points="616,384.2 612.2,387 612.5,296.9 616.4,294.5" fill="#E4E4E4" stroke="#1C1A17" stroke-width="2.5" stroke-linejoin="round"/>
    <polygon points="464,343.6 284.7,444.2 392.6,469.3 559.4,360.9" fill="#66714F" stroke="#1C1A17" stroke-width="2.5" stroke-linejoin="round"/>
    <polygon points="619.8,388.4 623.5,385.6 624.1,295.7 620.3,298.1" fill="#E4E4E4" stroke="#1C1A17" stroke-width="2.5" stroke-linejoin="round"/>
    <polygon points="612.2,387 619.8,388.4 620.3,298.1 612.5,296.9" fill="#E4E4E4" stroke="#1C1A17" stroke-width="2.5" stroke-linejoin="round"/>
    <polygon points="513.3,287.7 622.7,304.9 622.7,296.5 513.1,279.6" fill="#E4E4E4" stroke="#1C1A17" stroke-width="2.5" stroke-linejoin="round"/>
    <polygon points="502.3,254.1 -136.2,561.5 771.6,862.4 1072.7,337.7" fill="#C3C3C3" stroke="#1C1A17" stroke-width="2.5" stroke-linejoin="round"/>
    <polygon points="616.4,294.5 612.5,296.9 620.3,298.1 624.1,295.7" fill="#FFFFFF" stroke="#1C1A17" stroke-width="2.5" stroke-linejoin="round"/>
    <polygon points="737.9,416.7 580,387 579.1,264 743.6,288.1" fill="#E4E4E4" stroke="#1C1A17" stroke-width="2.5" stroke-linejoin="round"/>
    <polygon points="570.2,385.9 524.9,417.1 522.3,313.4 569.2,286.9" fill="#1C1A17" stroke="#1C1A17" stroke-width="2" stroke-linejoin="round"/>
    <polygon points="764.3,287.8 585.8,261.9 585.8,252.4 764.8,277.8" fill="#E4E4E4" stroke="#1C1A17" stroke-width="2.5" stroke-linejoin="round"/>
    <polygon points="665.9,257.6 594,247.6 593.8,179.3 667.3,187.8" fill="#1C1A17" stroke="#1C1A17" stroke-width="2" stroke-linejoin="round"/>
    <polygon points="700.7,281.8 557.7,260.9 556.1,144 704.5,159.6" fill="#E4E4E4" stroke="#1C1A17" stroke-width="2.5" stroke-linejoin="round"/>
    <polygon points="718,157.4 539.4,138.8 539.2,127.8 718.4,145.8" fill="#E4E4E4" stroke="#1C1A17" stroke-width="2.5" stroke-linejoin="round"/>
    <polygon points="547.6,249.5 507.4,269.7 505.1,191 546.3,174.1" fill="#1C1A17" stroke="#1C1A17" stroke-width="2" stroke-linejoin="round"/>
    <polygon points="580,387 452,476.6 445.1,336.7 579.1,264" fill="#E4E4E4" stroke="#1C1A17" stroke-width="2.5" stroke-linejoin="round"/>
    <polygon points="525.7,423.8 501.1,440.9 497.7,338.7 523.2,324" fill="#9C4F32" stroke="#1C1A17" stroke-width="2.5" stroke-linejoin="round"/>
    <polygon points="557.7,260.9 458,313.1 452.1,183.1 556.1,144" fill="#E4E4E4" stroke="#1C1A17" stroke-width="2.5" stroke-linejoin="round"/>
    <polygon points="585.8,261.9 441.2,340.6 440.6,329.6 585.8,252.4" fill="#E4E4E4" stroke="#1C1A17" stroke-width="2.5" stroke-linejoin="round"/>
    <polygon points="539.4,138.8 416.4,183.3 415.7,170.9 539.2,127.8" fill="#E4E4E4" stroke="#1C1A17" stroke-width="2.5" stroke-linejoin="round"/>
    <polygon points="514.7,424.2 462.5,460.2 457.4,349.9 511.7,319.3" fill="#1C1A17" stroke="#1C1A17" stroke-width="2" stroke-linejoin="round"/>
    <polygon points="499.3,273.7 467.4,289.8 464,207.8 496.7,194.4" fill="#1C1A17" stroke="#1C1A17" stroke-width="2" stroke-linejoin="round"/>
    <polygon points="579.1,264 445.1,336.7 630.7,370 743.6,288.1" fill="#FFFFFF" stroke="#1C1A17" stroke-width="2.5" stroke-linejoin="round"/>
    <polygon points="585.8,252.4 440.6,329.6 645,365.9 764.8,277.8" fill="#FFFFFF" stroke="#1C1A17" stroke-width="2.5" stroke-linejoin="round"/>
    <polygon points="629.4,517.4 737.9,416.7 743.6,288.1 630.7,370" fill="#E4E4E4" stroke="#1C1A17" stroke-width="2.5" stroke-linejoin="round"/>
    <polygon points="556.1,144 452.1,183.1 614.8,203.2 704.5,159.6" fill="#FFFFFF" stroke="#1C1A17" stroke-width="2.5" stroke-linejoin="round"/>
    <polygon points="539.2,127.8 415.7,170.9 614.9,194.9 718.4,145.8" fill="#FFFFFF" stroke="#1C1A17" stroke-width="2.5" stroke-linejoin="round"/>
    <polygon points="614.3,339.7 700.7,281.8 704.5,159.6 614.8,203.2" fill="#E4E4E4" stroke="#1C1A17" stroke-width="2.5" stroke-linejoin="round"/>
    <polygon points="644.9,377.5 764.3,287.8 764.8,277.8 645,365.9" fill="#E4E4E4" stroke="#1C1A17" stroke-width="2.5" stroke-linejoin="round"/>
    <polygon points="614.8,208.2 718,157.4 718.4,145.8 614.9,194.9" fill="#E4E4E4" stroke="#1C1A17" stroke-width="2.5" stroke-linejoin="round"/>
    <polygon points="458,313.1 614.3,339.7 614.8,203.2 452.1,183.1" fill="#E4E4E4" stroke="#1C1A17" stroke-width="2.5" stroke-linejoin="round"/>
    <polygon points="452,476.6 629.4,517.4 630.7,370 445.1,336.7" fill="#E4E4E4" stroke="#1C1A17" stroke-width="2.5" stroke-linejoin="round"/>
    <polygon points="481.2,470.5 591.5,495.3 591.2,390.7 477.2,369.1" fill="#1C1A17" stroke="#1C1A17" stroke-width="2" stroke-linejoin="round"/>
    <polygon points="416.4,183.3 614.8,208.2 614.9,194.9 415.7,170.9" fill="#E4E4E4" stroke="#1C1A17" stroke-width="2.5" stroke-linejoin="round"/>
    <polygon points="527.5,489.7 513.3,500.8 503.3,166.2 519.3,160.1" fill="#E4E4E4" stroke="#1C1A17" stroke-width="2.5" stroke-linejoin="round"/>
    <polygon points="607.3,507.9 527.5,489.7 519.3,160.1 607.9,170.1" fill="#E4E4E4" stroke="#1C1A17" stroke-width="2.5" stroke-linejoin="round"/>
    <polygon points="441.2,340.6 644.9,377.5 645,365.9 440.6,329.6" fill="#E4E4E4" stroke="#1C1A17" stroke-width="2.5" stroke-linejoin="round"/>
    <polygon points="513.3,500.8 594.1,519.6 593.2,176.5 503.3,166.2" fill="#E4E4E4" stroke="#1C1A17" stroke-width="2.5" stroke-linejoin="round"/>
    <path d="M 363.2 548.8 Q 389.9 360.5 341.5 172.2 L 353.4 172.2 Q 411 360.5 389.6 548.8 Z" fill="#C3C3C3" stroke="#1C1A17" stroke-width="2.5" stroke-linejoin="round"/><path d="M 347.4 172.2 Q 271.4 106.5 220.6 158.3 Q 271.4 139.8 347.4 172.2 Z" fill="#E4E4E4" stroke="#1C1A17" stroke-width="2.5" stroke-linejoin="round"/><path d="M 347.4 172.2 Q 280.6 79.3 236 123.1 Q 280.6 112.6 347.4 172.2 Z" fill="#E4E4E4" stroke="#1C1A17" stroke-width="2.5" stroke-linejoin="round"/><path d="M 347.4 172.2 Q 299.1 57.5 266.9 94.6 Q 299.1 90.8 347.4 172.2 Z" fill="#E4E4E4" stroke="#1C1A17" stroke-width="2.5" stroke-linejoin="round"/><path d="M 347.4 172.2 Q 324.3 43.9 308.9 77 Q 324.3 77.2 347.4 172.2 Z" fill="#E4E4E4" stroke="#1C1A17" stroke-width="2.5" stroke-linejoin="round"/><path d="M 347.4 172.2 Q 352.8 40.5 356.4 72.6 Q 352.8 73.8 347.4 172.2 Z" fill="#E4E4E4" stroke="#1C1A17" stroke-width="2.5" stroke-linejoin="round"/><path d="M 347.4 172.2 Q 380.5 47.8 402.6 82.1 Q 380.5 81.1 347.4 172.2 Z" fill="#E4E4E4" stroke="#1C1A17" stroke-width="2.5" stroke-linejoin="round"/><path d="M 347.4 172.2 Q 403.6 64.8 441.1 104.1 Q 403.6 98.1 347.4 172.2 Z" fill="#E4E4E4" stroke="#1C1A17" stroke-width="2.5" stroke-linejoin="round"/><path d="M 347.4 172.2 Q 418.9 89 466.6 135.6 Q 418.9 122.3 347.4 172.2 Z" fill="#E4E4E4" stroke="#1C1A17" stroke-width="2.5" stroke-linejoin="round"/><path d="M 347.4 172.2 Q 424.3 117.2 475.5 172.2 Q 424.3 150.5 347.4 172.2 Z" fill="#E4E4E4" stroke="#1C1A17" stroke-width="2.5" stroke-linejoin="round"/>
    <polygon points="594.1,519.6 607.3,507.9 607.9,170.1 593.2,176.5" fill="#E4E4E4" stroke="#1C1A17" stroke-width="2.5" stroke-linejoin="round"/>
    <path d="M 640.4 576.9 Q 661.2 430.4 650.9 284 L 660.2 284 Q 677.6 430.4 660.9 576.9 Z" fill="#C3C3C3" stroke="#1C1A17" stroke-width="2.5" stroke-linejoin="round"/><path d="M 655.6 284 Q 596.4 232.8 556.9 273.2 Q 596.4 258.7 655.6 284 Z" fill="#E4E4E4" stroke="#1C1A17" stroke-width="2.5" stroke-linejoin="round"/><path d="M 655.6 284 Q 603.6 211.7 568.9 245.7 Q 603.6 237.6 655.6 284 Z" fill="#E4E4E4" stroke="#1C1A17" stroke-width="2.5" stroke-linejoin="round"/><path d="M 655.6 284 Q 618 194.7 592.9 223.6 Q 618 220.6 655.6 284 Z" fill="#E4E4E4" stroke="#1C1A17" stroke-width="2.5" stroke-linejoin="round"/><path d="M 655.6 284 Q 637.6 184.2 625.6 209.9 Q 637.6 210.1 655.6 284 Z" fill="#E4E4E4" stroke="#1C1A17" stroke-width="2.5" stroke-linejoin="round"/><path d="M 655.6 284 Q 659.7 181.5 662.5 206.5 Q 659.7 207.4 655.6 284 Z" fill="#E4E4E4" stroke="#1C1A17" stroke-width="2.5" stroke-linejoin="round"/><path d="M 655.6 284 Q 681.3 187.2 698.4 213.9 Q 681.3 213.1 655.6 284 Z" fill="#E4E4E4" stroke="#1C1A17" stroke-width="2.5" stroke-linejoin="round"/><path d="M 655.6 284 Q 699.3 200.4 728.4 231 Q 699.3 226.3 655.6 284 Z" fill="#E4E4E4" stroke="#1C1A17" stroke-width="2.5" stroke-linejoin="round"/><path d="M 655.6 284 Q 711.2 219.3 748.2 255.5 Q 711.2 245.1 655.6 284 Z" fill="#E4E4E4" stroke="#1C1A17" stroke-width="2.5" stroke-linejoin="round"/><path d="M 655.6 284 Q 715.3 241.2 755.2 284 Q 715.3 267 655.6 284 Z" fill="#E4E4E4" stroke="#1C1A17" stroke-width="2.5" stroke-linejoin="round"/>
    <polygon points="519.3,160.1 503.3,166.2 593.2,176.5 607.9,170.1" fill="#FFFFFF" stroke="#1C1A17" stroke-width="2.5" stroke-linejoin="round"/>
  </g>
</svg>
