<svg xmlns="http://www.w3.org/2000/svg" viewBox="0 0 1200 800" width="1200" height="800" role="img" aria-label="Architectural study of the property">
  <defs>
    <linearGradient id="sky" x1="0" y1="0" x2="0" y2="1">
      <stop offset="0%" stop-color="#66714F"/>
      <stop offset="78%" stop-color="#F5F1EA"/>
    </linearGradient>
    <clipPath id="frame"><rect width="1200" height="800"/></clipPath>
  </defs>
  <g clip-path="url(#frame)">
    <rect width="1200" height="800" fill="url(#sky)"/>
    <path d="M 559.8 345.1 Q 573.4 249.5 561.3 153.9 L 567.3 153.9 Q 584.1 249.5 573.2 345.1 Z" fill="#C3C3C3" stroke="#1C1A17" stroke-width="2.5" stroke-linejoin="round"/><path d="M 564.3 153.9 Q 525.7 120.5 499.9 146.8 Q 525.7 137.4 564.3 153.9 Z" fill="#E4E4E4" stroke="#1C1A17" stroke-width="2.5" stroke-linejoin="round"/><path d="M 564.3 153.9 Q 530.4 106.7 507.7 128.9 Q 530.4 123.6 564.3 153.9 Z" fill="#E4E4E4" stroke="#1C1A17" stroke-width="2.5" stroke-linejoin="round"/><path d="M 564.3 153.9 Q 539.8 95.6 523.4 114.5 Q 539.8 112.5 564.3 153.9 Z" fill="#E4E4E4" stroke="#1C1A17" stroke-width="2.5" stroke-linejoin="round"/><path d="M 564.3 153.9 Q 552.6 88.7 544.8 105.5 Q 552.6 105.6 564.3 153.9 Z" fill="#E4E4E4" stroke="#1C1A17" stroke-width="2.5" stroke-linejoin="round"/><path d="M 564.3 153.9 Q 567 87 568.9 103.3 Q 567 103.9 564.3 153.9 Z" fill="#E4E4E4" stroke="#1C1A17" stroke-width="2.5" stroke-linejoin="round"/><path d="M 564.3 153.9 Q 581.1 90.7 592.3 108.1 Q 581.1 107.6 564.3 153.9 Z" fill="#E4E4E4" stroke="#1C1A17" stroke-width="2.5" stroke-linejoin="round"/><path d="M 564.3 153.9 Q 592.9 99.3 611.9 119.3 Q 592.9 116.2 564.3 153.9 Z" fill="#E4E4E4" stroke="#1C1A17" stroke-width="2.5" stroke-linejoin="round"/><path d="M 564.3 153.9 Q 600.6 111.6 624.8 135.3 Q 600.6 128.5 564.3 153.9 Z" fill="#E4E4E4" stroke="#1C1A17" stroke-width="2.5" stroke-linejoin="round"/><path d="M 564.3 153.9 Q 603.3 125.9 629.3 153.9 Q 603.3 142.8 564.3 153.9 Z" fill="#E4E4E4" stroke="#1C1A17" stroke-width="2.5" stroke-linejoin="round"/>
    <path d="M 428.8 348.7 Q 446.5 224.1 420.6 99.6 L 428.4 99.6 Q 460.5 224.1 446.3 348.7 Z" fill="#C3C3C3" stroke="#1C1A17" stroke-width="2.5" stroke-linejoin="round"/><path d="M 424.5 99.6 Q 374.2 56.1 340.6 90.4 Q 374.2 78.1 424.5 99.6 Z" fill="#E4E4E4" stroke="#1C1A17" stroke-width="2.5" stroke-linejoin="round"/><path d="M 424.5 99.6 Q 380.3 38.1 350.8 67.1 Q 380.3 60.2 424.5 99.6 Z" fill="#E4E4E4" stroke="#1C1A17" stroke-width="2.5" stroke-linejoin="round"/><path d="M 424.5 99.6 Q 392.5 23.7 371.2 48.3 Q 392.5 45.7 424.5 99.6 Z" fill="#E4E4E4" stroke="#1C1A17" stroke-width="2.5" stroke-linejoin="round"/><path d="M 424.5 99.6 Q 409.2 14.7 399 36.6 Q 409.2 36.7 424.5 99.6 Z" fill="#E4E4E4" stroke="#1C1A17" stroke-width="2.5" stroke-linejoin="round"/><path d="M 424.5 99.6 Q 428 12.5 430.4 33.7 Q 428 34.5 424.5 99.6 Z" fill="#E4E4E4" stroke="#1C1A17" stroke-width="2.5" stroke-linejoin="round"/><path d="M 424.5 99.6 Q 446.4 17.3 461 40 Q 446.4 39.3 424.5 99.6 Z" fill="#E4E4E4" stroke="#1C1A17" stroke-width="2.5" stroke-linejoin="round"/><path d="M 424.5 99.6 Q 461.7 28.5 486.4 54.5 Q 461.7 50.5 424.5 99.6 Z" fill="#E4E4E4" stroke="#1C1A17" stroke-width="2.5" stroke-linejoin="round"/><path d="M 424.5 99.6 Q 471.8 44.5 503.3 75.4 Q 471.8 66.6 424.5 99.6 Z" fill="#E4E4E4" stroke="#1C1A17" stroke-width="2.5" stroke-linejoin="round"/><path d="M 424.5 99.6 Q 475.3 63.2 509.2 99.6 Q 475.3 85.2 424.5 99.6 Z" fill="#E4E4E4" stroke="#1C1A17" stroke-width="2.5" stroke-linejoin="round"/>
    <polygon points="425.2,368.7 417.8,370.3 412.6,282.5 420.2,281.2" fill="#E4E4E4" stroke="#1C1A17" stroke-width="2.5" stroke-linejoin="round"/>
    <polygon points="428.8,371.1 425.2,368.7 420.2,281.2 423.9,283.3" fill="#E4E4E4" stroke="#1C1A17" stroke-width="2.5" stroke-linejoin="round"/>
    <polygon points="417.8,370.3 421.4,372.7 416.3,284.6 412.6,282.5" fill="#E4E4E4" stroke="#1C1A17" stroke-width="2.5" stroke-linejoin="round"/>
    <polygon points="421.4,372.7 428.8,371.1 423.9,283.3 416.3,284.6" fill="#E4E4E4" stroke="#1C1A17" stroke-width="2.5" stroke-linejoin="round"/>
    <polygon points="412.6,282.5 416.3,284.6 423.9,283.3 420.2,281.2" fill="#FFFFFF" stroke="#1C1A17" stroke-width="2.5" stroke-linejoin="round"/>
    <polygon points="422.8,283.6 308.5,304 307.8,295.7 422.4,275.5" fill="#E4E4E4" stroke="#1C1A17" stroke-width="2.5" stroke-linejoin="round"/>
    <polygon points="331.4,388.8 323.4,390.5 315.2,299.9 323.5,298.4" fill="#E4E4E4" stroke="#1C1A17" stroke-width="2.5" stroke-linejoin="round"/>
    <polygon points="334.7,391.4 331.4,388.8 323.5,298.4 326.9,300.7" fill="#E4E4E4" stroke="#1C1A17" stroke-width="2.5" stroke-linejoin="round"/>
    <polygon points="323.4,390.5 326.7,393.1 318.6,302.2 315.2,299.9" fill="#E4E4E4" stroke="#1C1A17" stroke-width="2.5" stroke-linejoin="round"/>
    <polygon points="326.7,393.1 334.7,391.4 326.9,300.7 318.6,302.2" fill="#E4E4E4" stroke="#1C1A17" stroke-width="2.5" stroke-linejoin="round"/>
    <polygon points="489.9,321.3 422.8,283.6 422.4,275.5 489.6,312.7" fill="#E4E4E4" stroke="#1C1A17" stroke-width="2.5" stroke-linejoin="round"/>
    <polygon points="281.1,394.7 246.4,402 244.4,384 279.3,376.8" fill="#9C4F32" stroke="#1C1A17" stroke-width="2" stroke-linejoin="round"/>
    <polygon points="278.6,377 273,378.1 270.6,355.5 276.2,354.4" fill="#9C4F32" stroke="#1C1A17" stroke-width="2" stroke-linejoin="round"/>
    <polygon points="315.2,299.9 318.6,302.2 326.9,300.7 323.5,298.4" fill="#FFFFFF" stroke="#1C1A17" stroke-width="2.5" stroke-linejoin="round"/>
    <polygon points="18.8,368.1 419.5,923.7 1275.3,548.2 607.5,260.1" fill="#C3C3C3" stroke="#1C1A17" stroke-width="2.5" stroke-linejoin="round"/>
    <polygon points="609,386.4 458.2,422.5 452.1,292.7 609.3,263.6" fill="#E4E4E4" stroke="#1C1A17" stroke-width="2.5" stroke-linejoin="round"/>
    <polygon points="481.5,406.4 473.7,408.2 469.8,315.1 477.8,313.6" fill="#E4E4E4" stroke="#1C1A17" stroke-width="2.5" stroke-linejoin="round"/>
    <polygon points="315.8,424.5 281.1,394.7 279.3,376.8 314,405.9" fill="#9C4F32" stroke="#1C1A17" stroke-width="2" stroke-linejoin="round"/>
    <polygon points="485.7,409.2 481.5,406.4 477.8,313.6 482.1,316" fill="#E4E4E4" stroke="#1C1A17" stroke-width="2.5" stroke-linejoin="round"/>
    <polygon points="307.8,295.7 368,336.5 489.6,312.7 422.4,275.5" fill="#FFFFFF" stroke="#1C1A17" stroke-width="2.5" stroke-linejoin="round"/>
    <polygon points="473.7,408.2 477.9,411.1 474.1,317.6 469.8,315.1" fill="#E4E4E4" stroke="#1C1A17" stroke-width="2.5" stroke-linejoin="round"/>
    <polygon points="477.9,411.1 485.7,409.2 482.1,316 474.1,317.6" fill="#E4E4E4" stroke="#1C1A17" stroke-width="2.5" stroke-linejoin="round"/>
    <polygon points="313.3,406.1 278.6,377 276.2,354.4 311.1,382.5" fill="#9C4F32" stroke="#1C1A17" stroke-width="2" stroke-linejoin="round"/>
    <polygon points="273,378.1 307.6,407.3 305.3,383.7 270.6,355.5" fill="#9C4F32" stroke="#1C1A17" stroke-width="2" stroke-linejoin="round"/>
    <polygon points="244.4,384 277.7,413.9 314,405.9 279.3,376.8" fill="#9C4F32" stroke="#1C1A17" stroke-width="2" stroke-linejoin="round"/>
    <polygon points="618.1,258.7 449.7,289.6 449.2,279.6 618.2,249.3" fill="#E4E4E4" stroke="#1C1A17" stroke-width="2.5" stroke-linejoin="round"/>
    <polygon points="270.6,355.5 305.3,383.7 311.1,382.5 276.2,354.4" fill="#9C4F32" stroke="#1C1A17" stroke-width="2" stroke-linejoin="round"/>
    <polygon points="246.4,402 279.7,432.7 277.7,413.9 244.4,384" fill="#9C4F32" stroke="#1C1A17" stroke-width="2" stroke-linejoin="round"/>
    <polygon points="469.8,315.1 474.1,317.6 482.1,316 477.8,313.6" fill="#FFFFFF" stroke="#1C1A17" stroke-width="2.5" stroke-linejoin="round"/>
    <polygon points="308.5,304 368.7,345.5 368,336.5 307.8,295.7" fill="#E4E4E4" stroke="#1C1A17" stroke-width="2.5" stroke-linejoin="round"/>
    <polygon points="279.7,432.7 315.8,424.5 314,405.9 277.7,413.9" fill="#9C4F32" stroke="#1C1A17" stroke-width="2" stroke-linejoin="round"/>
    <polygon points="307.6,407.3 313.3,406.1 311.1,382.5 305.3,383.7" fill="#9C4F32" stroke="#1C1A17" stroke-width="2" stroke-linejoin="round"/>
    <polygon points="757.6,469.8 609,386.4 609.3,263.6 764.8,331.1" fill="#E4E4E4" stroke="#1C1A17" stroke-width="2.5" stroke-linejoin="round"/>
    <polygon points="383,429.5 374.6,431.5 367.4,335.2 376.1,333.5" fill="#E4E4E4" stroke="#1C1A17" stroke-width="2.5" stroke-linejoin="round"/>
    <polygon points="386.8,432.6 383,429.5 376.1,333.5 380,336.1" fill="#E4E4E4" stroke="#1C1A17" stroke-width="2.5" stroke-linejoin="round"/>
    <polygon points="368.7,345.5 489.9,321.3 489.6,312.7 368,336.5" fill="#E4E4E4" stroke="#1C1A17" stroke-width="2.5" stroke-linejoin="round"/>
    <polygon points="374.6,431.5 378.4,434.6 371.3,337.8 367.4,335.2" fill="#E4E4E4" stroke="#1C1A17" stroke-width="2.5" stroke-linejoin="round"/>
    <polygon points="378.4,434.6 386.8,432.6 380,336.1 371.3,337.8" fill="#E4E4E4" stroke="#1C1A17" stroke-width="2.5" stroke-linejoin="round"/>
    <polygon points="538.2,257.6 466.2,270.3 463.2,198.6 536.8,187.8" fill="#1C1A17" stroke="#1C1A17" stroke-width="2" stroke-linejoin="round"/>
    <polygon points="571.9,270.5 428.6,297.1 421.7,171 570.8,151.1" fill="#E4E4E4" stroke="#1C1A17" stroke-width="2.5" stroke-linejoin="round"/>
    <polygon points="787.4,330.7 618.1,258.7 618.2,249.3 788.1,319.9" fill="#E4E4E4" stroke="#1C1A17" stroke-width="2.5" stroke-linejoin="round"/>
    <polygon points="367.4,335.2 371.3,337.8 380,336.1 376.1,333.5" fill="#FFFFFF" stroke="#1C1A17" stroke-width="2.5" stroke-linejoin="round"/>
    <polygon points="159.8,409 388.3,657.8 771.7,532.5 464.9,345.5" fill="#E4E4E4" stroke="#1C1A17" stroke-width="2.5" stroke-linejoin="round"/>
    <polygon points="569.3,147.6 387.1,171.6 386.3,159.5 569.1,136.3" fill="#E4E4E4" stroke="#1C1A17" stroke-width="2.5" stroke-linejoin="round"/>
    <polygon points="466.4,421.8 514.2,455.2 511,345.7 461.8,317.3" fill="#1C1A17" stroke="#1C1A17" stroke-width="2" stroke-linejoin="round"/>
    <polygon points="683.4,321.7 571.9,270.5 570.8,151.1 686.8,189.6" fill="#E4E4E4" stroke="#1C1A17" stroke-width="2.5" stroke-linejoin="round"/>
    <polygon points="449.2,279.6 602.2,362.3 788.1,319.9 618.2,249.3" fill="#FFFFFF" stroke="#1C1A17" stroke-width="2.5" stroke-linejoin="round"/>
    <polygon points="452.1,292.7 593,370.8 764.8,331.1 609.3,263.6" fill="#FFFFFF" stroke="#1C1A17" stroke-width="2.5" stroke-linejoin="round"/>
    <polygon points="704.2,191.9 569.3,147.6 569.1,136.3 704.6,179.2" fill="#E4E4E4" stroke="#1C1A17" stroke-width="2.5" stroke-linejoin="round"/>
    <polygon points="264.9,441.6 409.8,580.5 547.2,539.5 384.3,414.3" fill="#66714F" stroke="#1C1A17" stroke-width="2.5" stroke-linejoin="round"/>
    <polygon points="458.2,422.5 593.4,518.2 593,370.8 452.1,292.7" fill="#E4E4E4" stroke="#1C1A17" stroke-width="2.5" stroke-linejoin="round"/>
    <polygon points="513.7,462.2 539.6,480.6 537.4,372.7 510.6,356.9" fill="#9C4F32" stroke="#1C1A17" stroke-width="2.5" stroke-linejoin="round"/>
    <path d="M 860.7 488 Q 879.3 357 889.2 225.9 L 897.4 225.9 Q 894 357 879.1 488 Z" fill="#C3C3C3" stroke="#1C1A17" stroke-width="2.5" stroke-linejoin="round"/><path d="M 893.3 225.9 Q 840.4 180.1 805.1 216.2 Q 840.4 203.3 893.3 225.9 Z" fill="#E4E4E4" stroke="#1C1A17" stroke-width="2.5" stroke-linejoin="round"/><path d="M 893.3 225.9 Q 846.8 161.2 815.7 191.7 Q 846.8 184.4 893.3 225.9 Z" fill="#E4E4E4" stroke="#1C1A17" stroke-width="2.5" stroke-linejoin="round"/><path d="M 893.3 225.9 Q 859.7 146 837.2 171.9 Q 859.7 169.2 893.3 225.9 Z" fill="#E4E4E4" stroke="#1C1A17" stroke-width="2.5" stroke-linejoin="round"/><path d="M 893.3 225.9 Q 877.2 136.6 866.5 159.6 Q 877.2 159.7 893.3 225.9 Z" fill="#E4E4E4" stroke="#1C1A17" stroke-width="2.5" stroke-linejoin="round"/><path d="M 893.3 225.9 Q 897 134.2 899.5 156.5 Q 897 157.4 893.3 225.9 Z" fill="#E4E4E4" stroke="#1C1A17" stroke-width="2.5" stroke-linejoin="round"/><path d="M 893.3 225.9 Q 916.3 139.3 931.7 163.1 Q 916.3 162.5 893.3 225.9 Z" fill="#E4E4E4" stroke="#1C1A17" stroke-width="2.5" stroke-linejoin="round"/><path d="M 893.3 225.9 Q 932.4 151.1 958.5 178.5 Q 932.4 174.3 893.3 225.9 Z" fill="#E4E4E4" stroke="#1C1A17" stroke-width="2.5" stroke-linejoin="round"/><path d="M 893.3 225.9 Q 943.1 168 976.2 200.4 Q 943.1 191.1 893.3 225.9 Z" fill="#E4E4E4" stroke="#1C1A17" stroke-width="2.5" stroke-linejoin="round"/><path d="M 893.3 225.9 Q 946.8 187.6 982.4 225.9 Q 946.8 210.7 893.3 225.9 Z" fill="#E4E4E4" stroke="#1C1A17" stroke-width="2.5" stroke-linejoin="round"/>
    <polygon points="435.8,285.2 476.3,307.8 472.9,222.9 431.5,204" fill="#1C1A17" stroke="#1C1A17" stroke-width="2" stroke-linejoin="round"/>
    <polygon points="421.7,171 526.2,214.9 686.8,189.6 570.8,151.1" fill="#FFFFFF" stroke="#1C1A17" stroke-width="2.5" stroke-linejoin="round"/>
    <polygon points="449.7,289.6 602.2,373.8 602.2,362.3 449.2,279.6" fill="#E4E4E4" stroke="#1C1A17" stroke-width="2.5" stroke-linejoin="round"/>
    <polygon points="386.3,159.5 505.1,210 704.6,179.2 569.1,136.3" fill="#FFFFFF" stroke="#1C1A17" stroke-width="2.5" stroke-linejoin="round"/>
    <polygon points="428.6,297.1 529.5,355.2 526.2,214.9 421.7,171" fill="#E4E4E4" stroke="#1C1A17" stroke-width="2.5" stroke-linejoin="round"/>
    <polygon points="524.9,462.8 579.9,501.3 579.1,385 522.1,352.1" fill="#1C1A17" stroke="#1C1A17" stroke-width="2" stroke-linejoin="round"/>
    <polygon points="593.4,518.2 757.6,469.8 764.8,331.1 593,370.8" fill="#E4E4E4" stroke="#1C1A17" stroke-width="2.5" stroke-linejoin="round"/>
    <polygon points="625.6,495.4 727.9,465.8 732.1,365.1 626.4,390.8" fill="#1C1A17" stroke="#1C1A17" stroke-width="2" stroke-linejoin="round"/>
    <polygon points="748.3,483.1 731.2,473.2 745,151.2 764.2,156.5" fill="#E4E4E4" stroke="#1C1A17" stroke-width="2.5" stroke-linejoin="round"/>
    <polygon points="731.2,473.2 659.9,494.1 666.3,162.5 745,151.2" fill="#E4E4E4" stroke="#1C1A17" stroke-width="2.5" stroke-linejoin="round"/>
    <polygon points="529.5,355.2 683.4,321.7 686.8,189.6 526.2,214.9" fill="#E4E4E4" stroke="#1C1A17" stroke-width="2.5" stroke-linejoin="round"/>
    <polygon points="484.5,312.3 516.7,330.2 514.3,241.8 481.3,226.7" fill="#1C1A17" stroke="#1C1A17" stroke-width="2" stroke-linejoin="round"/>
    <polygon points="387.1,171.6 505.5,223.7 505.1,210 386.3,159.5" fill="#E4E4E4" stroke="#1C1A17" stroke-width="2.5" stroke-linejoin="round"/>
    <polygon points="602.2,373.8 787.4,330.7 788.1,319.9 602.2,362.3" fill="#E4E4E4" stroke="#1C1A17" stroke-width="2.5" stroke-linejoin="round"/>
    <polygon points="676.4,504.6 748.3,483.1 764.2,156.5 684.8,168.3" fill="#E4E4E4" stroke="#1C1A17" stroke-width="2.5" stroke-linejoin="round"/>
    <polygon points="659.9,494.1 676.4,504.6 684.8,168.3 666.3,162.5" fill="#E4E4E4" stroke="#1C1A17" stroke-width="2.5" stroke-linejoin="round"/>
    <polygon points="505.5,223.7 704.2,191.9 704.6,179.2 505.1,210" fill="#E4E4E4" stroke="#1C1A17" stroke-width="2.5" stroke-linejoin="round"/>
    <polygon points="666.3,162.5 684.8,168.3 764.2,156.5 745,151.2" fill="#FFFFFF" stroke="#1C1A17" stroke-width="2.5" stroke-linejoin="round"/>
    <path d="M 701.3 582.8 Q 729.2 386.5 724.1 190.2 L 736.5 190.2 Q 751.2 386.5 728.8 582.8 Z" fill="#C3C3C3" stroke="#1C1A17" stroke-width="2.5" stroke-linejoin="round"/><path d="M 730.3 190.2 Q 651 121.7 598.2 175.8 Q 651 156.4 730.3 190.2 Z" fill="#E4E4E4" stroke="#1C1A17" stroke-width="2.5" stroke-linejoin="round"/><path d="M 730.3 190.2 Q 660.6 93.4 614.2 139 Q 660.6 128.1 730.3 190.2 Z" fill="#E4E4E4" stroke="#1C1A17" stroke-width="2.5" stroke-linejoin="round"/><path d="M 730.3 190.2 Q 679.9 70.6 646.3 109.3 Q 679.9 105.3 730.3 190.2 Z" fill="#E4E4E4" stroke="#1C1A17" stroke-width="2.5" stroke-linejoin="round"/><path d="M 730.3 190.2 Q 706.2 56.5 690.2 91 Q 706.2 91.2 730.3 190.2 Z" fill="#E4E4E4" stroke="#1C1A17" stroke-width="2.5" stroke-linejoin="round"/><path d="M 730.3 190.2 Q 735.9 53 739.6 86.4 Q 735.9 87.7 730.3 190.2 Z" fill="#E4E4E4" stroke="#1C1A17" stroke-width="2.5" stroke-linejoin="round"/><path d="M 730.3 190.2 Q 764.8 60.6 787.8 96.3 Q 764.8 95.3 730.3 190.2 Z" fill="#E4E4E4" stroke="#1C1A17" stroke-width="2.5" stroke-linejoin="round"/><path d="M 730.3 190.2 Q 788.9 78.2 827.9 119.2 Q 788.9 112.9 730.3 190.2 Z" fill="#E4E4E4" stroke="#1C1A17" stroke-width="2.5" stroke-linejoin="round"/><path d="M 730.3 190.2 Q 804.8 103.5 854.5 152.1 Q 804.8 138.2 730.3 190.2 Z" fill="#E4E4E4" stroke="#1C1A17" stroke-width="2.5" stroke-linejoin="round"/><path d="M 730.3 190.2 Q 810.4 132.9 863.8 190.2 Q 810.4 167.6 730.3 190.2 Z" fill="#E4E4E4" stroke="#1C1A17" stroke-width="2.5" stroke-linejoin="round"/>
  </g>
</svg>
