<svg xmlns="http://www.w3.org/2000/svg" viewBox="0 0 1200 900" width="1200" height="900" role="img" aria-label="Architectural study of the property">
  <defs>
    <linearGradient id="sky" x1="0" y1="0" x2="0" y2="1">
      <stop offset="0%" stop-color="#66714F"/>
      <stop offset="78%" stop-color="#F5F1EA"/>
    </linearGradient>
    <clipPath id="frame"><rect width="1200" height="900"/></clipPath>
  </defs>
  <g clip-path="url(#frame)">
    <rect width="1200" height="900" fill="url(#sky)"/>
    <rect x="581.7" y="295.7" width="14.7" height="58.8" fill="#A3A3A3" stroke="#1C1A17" stroke-width="2.5"/><polygon points="589,222.2 662.5,300.6 515.5,300.6" fill="#E4E4E4" stroke="#1C1A17" stroke-width="2.5" stroke-linejoin="round"/><polygon points="589,178.1 650.9,256.5 527.1,256.5" fill="#C3C3C3" stroke="#1C1A17" stroke-width="2.5" stroke-linejoin="round"/><polygon points="589,133.9 639.3,212.4 538.8,212.4" fill="#E4E4E4" stroke="#1C1A17" stroke-width="2.5" stroke-linejoin="round"/><polygon points="589,89.8 627.6,168.3 550.4,168.3" fill="#C3C3C3" stroke="#1C1A17" stroke-width="2.5" stroke-linejoin="round"/>
    <rect x="338.7" y="336.5" width="14.7" height="58.8" fill="#A3A3A3" stroke="#1C1A17" stroke-width="2.5"/><polygon points="346,263 419.5,341.4 272.5,341.4" fill="#E4E4E4" stroke="#1C1A17" stroke-width="2.5" stroke-linejoin="round"/><polygon points="346,218.9 407.8,297.3 284.2,297.3" fill="#C3C3C3" stroke="#1C1A17" stroke-width="2.5" stroke-linejoin="round"/><polygon points="346,174.9 396.2,253.2 295.8,253.2" fill="#E4E4E4" stroke="#1C1A17" stroke-width="2.5" stroke-linejoin="round"/><polygon points="346,130.8 384.6,209.1 307.4,209.1" fill="#C3C3C3" stroke="#1C1A17" stroke-width="2.5" stroke-linejoin="round"/>
    <rect x="468.6" y="328.6" width="19.7" height="79" fill="#A3A3A3" stroke="#1C1A17" stroke-width="2.5"/><polygon points="478.5,229.9 577.2,335.2 379.8,335.2" fill="#E4E4E4" stroke="#1C1A17" stroke-width="2.5" stroke-linejoin="round"/><polygon points="478.5,170.7 561.5,276 395.4,276" fill="#C3C3C3" stroke="#1C1A17" stroke-width="2.5" stroke-linejoin="round"/><polygon points="478.5,111.5 545.9,216.8 411,216.8" fill="#E4E4E4" stroke="#1C1A17" stroke-width="2.5" stroke-linejoin="round"/><polygon points="478.5,52.3 530.3,157.5 426.6,157.5" fill="#C3C3C3" stroke="#1C1A17" stroke-width="2.5" stroke-linejoin="round"/>
    <polygon points="702.8,455.6 693.6,456.8 699,364.6 708.6,363.5" fill="#E4E4E4" stroke="#1C1A17" stroke-width="2.5" stroke-linejoin="round"/>
    <polygon points="705.8,460.5 702.8,455.6 708.6,363.5 711.8,368.1" fill="#E4E4E4" stroke="#1C1A17" stroke-width="2.5" stroke-linejoin="round"/>
    <polygon points="693.6,456.8 696.6,461.8 702.2,369.2 699,364.6" fill="#E4E4E4" stroke="#1C1A17" stroke-width="2.5" stroke-linejoin="round"/>
    <polygon points="696.6,461.8 705.8,460.5 711.8,368.1 702.2,369.2" fill="#E4E4E4" stroke="#1C1A17" stroke-width="2.5" stroke-linejoin="round"/>
    <polygon points="1199.9,833.3 750,292 210.5,350.9 255.7,1028.6" fill="#C3C3C3" stroke="#1C1A17" stroke-width="2.5" stroke-linejoin="round"/>
    <polygon points="632.1,462.4 460.1,485.2 454.6,388.9 634.8,367.5" fill="#E4E4E4" stroke="#1C1A17" stroke-width="2.5" stroke-linejoin="round"/>
    <polygon points="862.1,607.9 733.6,420.1 604.3,436.8 706.3,632.9" fill="#E4E4E4" stroke="#1C1A17" stroke-width="2.5" stroke-linejoin="round"/>
    <polygon points="710.1,358.3 633.3,367.5 633.5,360.3 710.6,351.2" fill="#E4E4E4" stroke="#1C1A17" stroke-width="2.5" stroke-linejoin="round"/>
    <polygon points="711.8,368.1 708.6,363.5 699,364.6 702.2,369.2" fill="#FFFFFF" stroke="#1C1A17" stroke-width="2.5" stroke-linejoin="round"/>
    <polygon points="658.3,491 642.4,461.9 644,414.3 660.4,442.5" fill="#1C1A17" stroke="#1C1A17" stroke-width="2" stroke-linejoin="round"/>
    <polygon points="427.5,523.8 401.7,527.3 400.1,509.2 426.2,505.7" fill="#9C4F32" stroke="#1C1A17" stroke-width="2" stroke-linejoin="round"/>
    <polygon points="595.4,362.8 528.6,370.6 527.5,321.1 595.9,313.6" fill="#1C1A17" stroke="#1C1A17" stroke-width="2" stroke-linejoin="round"/>
    <polygon points="634.1,375.2 483.1,393.3 478.9,297 636.8,280.3" fill="#E4E4E4" stroke="#1C1A17" stroke-width="2.5" stroke-linejoin="round"/>
    <polygon points="702.6,593.7 632.1,462.4 634.8,367.5 709.6,491.2" fill="#E4E4E4" stroke="#1C1A17" stroke-width="2.5" stroke-linejoin="round"/>
    <polygon points="672.9,535.9 659.1,510.3 662.7,426.8 677.2,451.1" fill="#9C4F32" stroke="#1C1A17" stroke-width="2.5" stroke-linejoin="round"/>
    <polygon points="404.8,508.6 398.6,509.4 396.4,485.1 402.8,484.3" fill="#9C4F32" stroke="#1C1A17" stroke-width="2" stroke-linejoin="round"/>
    <polygon points="799.5,484.4 710.1,358.3 710.6,351.2 800.3,476.6" fill="#E4E4E4" stroke="#1C1A17" stroke-width="2.5" stroke-linejoin="round"/>
    <polygon points="442.9,577.9 427.5,523.8 426.2,505.7 441.6,559.3" fill="#9C4F32" stroke="#1C1A17" stroke-width="2" stroke-linejoin="round"/>
    <polygon points="800.3,476.6 710.6,351.2 633.5,360.3 711.8,488.8" fill="#FFFFFF" stroke="#1C1A17" stroke-width="2.5" stroke-linejoin="round"/>
    <polygon points="401.7,527.3 415.7,581.9 414.2,563.2 400.1,509.2" fill="#9C4F32" stroke="#1C1A17" stroke-width="2" stroke-linejoin="round"/>
    <polygon points="662.1,403.9 644.9,375.7 646.7,320.2 664.5,347.2" fill="#1C1A17" stroke="#1C1A17" stroke-width="2" stroke-linejoin="round"/>
    <polygon points="441.6,559.3 426.2,505.7 400.1,509.2 414.2,563.2" fill="#9C4F32" stroke="#1C1A17" stroke-width="2" stroke-linejoin="round"/>
    <polygon points="633.3,367.5 711.3,496.7 711.8,488.8 633.5,360.3" fill="#E4E4E4" stroke="#1C1A17" stroke-width="2.5" stroke-linejoin="round"/>
    <polygon points="460.1,485.2 506.3,624.1 502.5,519.9 454.6,388.9" fill="#E4E4E4" stroke="#1C1A17" stroke-width="2.5" stroke-linejoin="round"/>
    <polygon points="419.1,562.5 404.8,508.6 402.8,484.3 417.1,537.5" fill="#9C4F32" stroke="#1C1A17" stroke-width="2" stroke-linejoin="round"/>
    <polygon points="398.6,509.4 412.5,563.5 410.4,538.5 396.4,485.1" fill="#9C4F32" stroke="#1C1A17" stroke-width="2" stroke-linejoin="round"/>
    <polygon points="695.2,558.3 676.8,524.8 679.4,475.3 698.4,507.8" fill="#1C1A17" stroke="#1C1A17" stroke-width="2" stroke-linejoin="round"/>
    <polygon points="627.2,290.8 499.4,304.5 498.5,278.8 627.8,265.5" fill="#E4E4E4" stroke="#1C1A17" stroke-width="2.5" stroke-linejoin="round"/>
    <polygon points="709.6,491.2 634.8,367.5 454.6,388.9 502.5,519.9" fill="#FFFFFF" stroke="#1C1A17" stroke-width="2.5" stroke-linejoin="round"/>
    <polygon points="417.1,537.5 402.8,484.3 396.4,485.1 410.4,538.5" fill="#9C4F32" stroke="#1C1A17" stroke-width="2" stroke-linejoin="round"/>
    <polygon points="698.4,482.7 634.1,375.2 636.8,280.3 704.8,379.8" fill="#E4E4E4" stroke="#1C1A17" stroke-width="2.5" stroke-linejoin="round"/>
    <polygon points="415.7,581.9 442.9,577.9 441.6,559.3 414.2,563.2" fill="#9C4F32" stroke="#1C1A17" stroke-width="2" stroke-linejoin="round"/>
    <polygon points="775.2,572.1 764.9,573.7 774.8,474.6 785.5,473.1" fill="#E4E4E4" stroke="#1C1A17" stroke-width="2.5" stroke-linejoin="round"/>
    <polygon points="779.1,578.4 775.2,572.1 785.5,473.1 789.8,479.1" fill="#E4E4E4" stroke="#1C1A17" stroke-width="2.5" stroke-linejoin="round"/>
    <polygon points="764.9,573.7 768.8,580 778.9,480.6 774.8,474.6" fill="#E4E4E4" stroke="#1C1A17" stroke-width="2.5" stroke-linejoin="round"/>
    <polygon points="528.4,297.1 498.8,300.3 495.3,199.9 526.3,197" fill="#E4E4E4" stroke="#1C1A17" stroke-width="2.5" stroke-linejoin="round"/>
    <polygon points="768.8,580 779.1,578.4 789.8,479.1 778.9,480.6" fill="#E4E4E4" stroke="#1C1A17" stroke-width="2.5" stroke-linejoin="round"/>
    <polygon points="412.5,563.5 419.1,562.5 417.1,537.5 410.4,538.5" fill="#9C4F32" stroke="#1C1A17" stroke-width="2" stroke-linejoin="round"/>
    <polygon points="535,309.9 528.4,297.1 526.3,197 533.1,208.6" fill="#E4E4E4" stroke="#1C1A17" stroke-width="2.5" stroke-linejoin="round"/>
    <polygon points="498.8,300.3 504.9,313.2 501.6,211.5 495.3,199.9" fill="#E4E4E4" stroke="#1C1A17" stroke-width="2.5" stroke-linejoin="round"/>
    <polygon points="615.4,281.1 527.6,290.4 527,263.8 615.9,254.8" fill="#E4E4E4" stroke="#1C1A17" stroke-width="2.5" stroke-linejoin="round"/>
    <polygon points="483.1,393.3 528.1,506.1 525.7,401.7 478.9,297" fill="#E4E4E4" stroke="#1C1A17" stroke-width="2.5" stroke-linejoin="round"/>
    <polygon points="504.9,313.2 535,309.9 533.1,208.6 501.6,211.5" fill="#E4E4E4" stroke="#1C1A17" stroke-width="2.5" stroke-linejoin="round"/>
    <polygon points="689,447.8 669.9,416.6 672.5,359.3 692.3,389.3" fill="#1C1A17" stroke="#1C1A17" stroke-width="2" stroke-linejoin="round"/>
    <polygon points="789.8,479.1 785.5,473.1 774.8,474.6 778.9,480.6" fill="#FFFFFF" stroke="#1C1A17" stroke-width="2.5" stroke-linejoin="round"/>
    <polygon points="679.9,370.7 627.2,290.8 627.8,265.5 681.2,343.5" fill="#E4E4E4" stroke="#1C1A17" stroke-width="2.5" stroke-linejoin="round"/>
    <polygon points="704.8,379.8 636.8,280.3 478.9,297 525.7,401.7" fill="#FFFFFF" stroke="#1C1A17" stroke-width="2.5" stroke-linejoin="round"/>
    <polygon points="533.1,208.6 526.3,197 495.3,199.9 501.6,211.5" fill="#FFFFFF" stroke="#1C1A17" stroke-width="2.5" stroke-linejoin="round"/>
    <polygon points="506.3,624.1 702.6,593.7 709.6,491.2 502.5,519.9" fill="#E4E4E4" stroke="#1C1A17" stroke-width="2.5" stroke-linejoin="round"/>
    <polygon points="647.3,330.2 615.4,281.1 615.9,254.8 648.3,302.6" fill="#E4E4E4" stroke="#1C1A17" stroke-width="2.5" stroke-linejoin="round"/>
    <polygon points="681.2,343.5 627.8,265.5 498.5,278.8 538,360.1" fill="#FFFFFF" stroke="#1C1A17" stroke-width="2.5" stroke-linejoin="round"/>
    <polygon points="711.3,496.7 799.5,484.4 800.3,476.6 711.8,488.8" fill="#E4E4E4" stroke="#1C1A17" stroke-width="2.5" stroke-linejoin="round"/>
    <polygon points="499.4,304.5 538.5,387.7 538,360.1 498.5,278.8" fill="#E4E4E4" stroke="#1C1A17" stroke-width="2.5" stroke-linejoin="round"/>
    <polygon points="648.3,302.6 615.9,254.8 527,263.8 553.5,312.9" fill="#FFFFFF" stroke="#1C1A17" stroke-width="2.5" stroke-linejoin="round"/>
    <polygon points="527.6,290.4 553.7,340.8 553.5,312.9 527,263.8" fill="#E4E4E4" stroke="#1C1A17" stroke-width="2.5" stroke-linejoin="round"/>
    <polygon points="528.1,506.1 698.4,482.7 704.8,379.8 525.7,401.7" fill="#E4E4E4" stroke="#1C1A17" stroke-width="2.5" stroke-linejoin="round"/>
    <polygon points="553.7,340.8 647.3,330.2 648.3,302.6 553.5,312.9" fill="#E4E4E4" stroke="#1C1A17" stroke-width="2.5" stroke-linejoin="round"/>
    <polygon points="538.5,387.7 679.9,370.7 681.2,343.5 538,360.1" fill="#E4E4E4" stroke="#1C1A17" stroke-width="2.5" stroke-linejoin="round"/>
    <rect x="572.7" y="658.8" width="21.6" height="86.5" fill="#A3A3A3" stroke="#1C1A17" stroke-width="2.5"/><polygon points="583.5,550.6 691.6,666 475.4,666" fill="#E4E4E4" stroke="#1C1A17" stroke-width="2.5" stroke-linejoin="round"/><polygon points="583.5,485.8 674.5,601.1 492.5,601.1" fill="#C3C3C3" stroke="#1C1A17" stroke-width="2.5" stroke-linejoin="round"/><polygon points="583.5,420.9 657.4,536.2 509.6,536.2" fill="#E4E4E4" stroke="#1C1A17" stroke-width="2.5" stroke-linejoin="round"/><polygon points="583.5,356 640.3,471.4 526.7,471.4" fill="#C3C3C3" stroke="#1C1A17" stroke-width="2.5" stroke-linejoin="round"/>
    <rect x="797" y="724.5" width="16.5" height="65.9" fill="#A3A3A3" stroke="#1C1A17" stroke-width="2.5"/><polygon points="805.2,642.2 887.5,730 722.8,730" fill="#E4E4E4" stroke="#1C1A17" stroke-width="2.5" stroke-linejoin="round"/><polygon points="805.2,592.8 874.5,680.6 735.9,680.6" fill="#C3C3C3" stroke="#1C1A17" stroke-width="2.5" stroke-linejoin="round"/><polygon points="805.2,543.4 861.5,631.2 748.9,631.2" fill="#E4E4E4" stroke="#1C1A17" stroke-width="2.5" stroke-linejoin="round"/><polygon points="805.2,494 848.4,581.8 762,581.8" fill="#C3C3C3" stroke="#1C1A17" stroke-width="2.5" stroke-linejoin="round"/>
    <rect x="450.8" y="751.9" width="20.8" height="83.1" fill="#A3A3A3" stroke="#1C1A17" stroke-width="2.5"/><polygon points="461.2,648 565,758.8 357.3,758.8" fill="#E4E4E4" stroke="#1C1A17" stroke-width="2.5" stroke-linejoin="round"/><polygon points="461.2,585.7 548.6,696.5 373.8,696.5" fill="#C3C3C3" stroke="#1C1A17" stroke-width="2.5" stroke-linejoin="round"/><polygon points="461.2,523.4 532.1,634.2 390.2,634.2" fill="#E4E4E4" stroke="#1C1A17" stroke-width="2.5" stroke-linejoin="round"/><polygon points="461.2,461.1 515.7,571.9 406.7,571.9" fill="#C3C3C3" stroke="#1C1A17" stroke-width="2.5" stroke-linejoin="round"/>
  </g>
</svg>
