<svg xmlns="http://www.w3.org/2000/svg" viewBox="0 0 1200 900" width="1200" height="900" role="img" aria-label="Architectural study of the property">
  <defs>
    <linearGradient id="sky" x1="0" y1="0" x2="0" y2="1">
      <stop offset="0%" stop-color="#66714F"/>
      <stop offset="78%" stop-color="#F5F1EA"/>
    </linearGradient>
    <clipPath id="frame"><rect width="1200" height="900"/></clipPath>
  </defs>
  <g clip-path="url(#frame)">
    <rect width="1200" height="900" fill="url(#sky)"/>
    <polygon points="692.3,485.9 654.5,480.4 654.2,456.9 692.2,462.2" fill="#9C4F32" stroke="#1C1A17" stroke-width="2" stroke-linejoin="round"/>
    <polygon points="691.4,462.1 685.3,461.2 685.1,431.4 691.3,432.2" fill="#9C4F32" stroke="#1C1A17" stroke-width="2" stroke-linejoin="round"/>
    <polygon points="654.5,480.4 587.9,503.6 587.5,479 654.2,456.9" fill="#9C4F32" stroke="#1C1A17" stroke-width="2" stroke-linejoin="round"/>
    <polygon points="654.2,456.9 587.5,479 626.4,484.8 692.2,462.2" fill="#9C4F32" stroke="#1C1A17" stroke-width="2" stroke-linejoin="round"/>
    <polygon points="736.4,496.8 726.9,495.4 727,372.8 736.7,373.9" fill="#E4E4E4" stroke="#1C1A17" stroke-width="2.5" stroke-linejoin="round"/>
    <polygon points="726.9,495.4 721.1,497.6 721,374.5 727,372.8" fill="#E4E4E4" stroke="#1C1A17" stroke-width="2.5" stroke-linejoin="round"/>
    <polygon points="626.8,509.6 692.3,485.9 692.2,462.2 626.4,484.8" fill="#9C4F32" stroke="#1C1A17" stroke-width="2" stroke-linejoin="round"/>
    <polygon points="730.6,499 736.4,496.8 736.7,373.9 730.7,375.6" fill="#E4E4E4" stroke="#1C1A17" stroke-width="2.5" stroke-linejoin="round"/>
    <polygon points="721.1,497.6 730.6,499 730.7,375.6 721,374.5" fill="#E4E4E4" stroke="#1C1A17" stroke-width="2.5" stroke-linejoin="round"/>
    <polygon points="685.3,461.2 619.3,483.7 618.9,452.5 685.1,431.4" fill="#9C4F32" stroke="#1C1A17" stroke-width="2" stroke-linejoin="round"/>
    <polygon points="625.6,484.7 691.4,462.1 691.3,432.2 625.2,453.4" fill="#9C4F32" stroke="#1C1A17" stroke-width="2" stroke-linejoin="round"/>
    <polygon points="685.1,431.4 618.9,452.5 625.2,453.4 691.3,432.2" fill="#9C4F32" stroke="#1C1A17" stroke-width="2" stroke-linejoin="round"/>
    <polygon points="727,372.8 721,374.5 730.7,375.6 736.7,373.9" fill="#FFFFFF" stroke="#1C1A17" stroke-width="2.5" stroke-linejoin="round"/>
    <path d="M 919.8 507.9 Q 945.6 325.9 938.3 144 L 949.8 144 Q 966 325.9 945.2 507.9 Z" fill="#C3C3C3" stroke="#1C1A17" stroke-width="2.5" stroke-linejoin="round"/><path d="M 944.1 144 Q 870.6 80.4 821.6 130.5 Q 870.6 112.6 944.1 144 Z" fill="#E4E4E4" stroke="#1C1A17" stroke-width="2.5" stroke-linejoin="round"/><path d="M 944.1 144 Q 879.5 54.2 836.4 96.4 Q 879.5 86.4 944.1 144 Z" fill="#E4E4E4" stroke="#1C1A17" stroke-width="2.5" stroke-linejoin="round"/><path d="M 944.1 144 Q 897.4 33.1 866.2 69 Q 897.4 65.2 944.1 144 Z" fill="#E4E4E4" stroke="#1C1A17" stroke-width="2.5" stroke-linejoin="round"/><path d="M 944.1 144 Q 921.7 20 906.9 51.9 Q 921.7 52.1 944.1 144 Z" fill="#E4E4E4" stroke="#1C1A17" stroke-width="2.5" stroke-linejoin="round"/><path d="M 944.1 144 Q 949.2 16.7 952.7 47.7 Q 949.2 48.9 944.1 144 Z" fill="#E4E4E4" stroke="#1C1A17" stroke-width="2.5" stroke-linejoin="round"/><path d="M 944.1 144 Q 976 23.8 997.3 56.9 Q 976 55.9 944.1 144 Z" fill="#E4E4E4" stroke="#1C1A17" stroke-width="2.5" stroke-linejoin="round"/><path d="M 944.1 144 Q 998.4 40.1 1034.6 78.1 Q 998.4 72.3 944.1 144 Z" fill="#E4E4E4" stroke="#1C1A17" stroke-width="2.5" stroke-linejoin="round"/><path d="M 944.1 144 Q 1013.1 63.5 1059.2 108.6 Q 1013.1 95.7 944.1 144 Z" fill="#E4E4E4" stroke="#1C1A17" stroke-width="2.5" stroke-linejoin="round"/><path d="M 944.1 144 Q 1018.3 90.8 1067.8 144 Q 1018.3 122.9 944.1 144 Z" fill="#E4E4E4" stroke="#1C1A17" stroke-width="2.5" stroke-linejoin="round"/>
    <polygon points="587.9,503.6 626.8,509.6 626.4,484.8 587.5,479" fill="#9C4F32" stroke="#1C1A17" stroke-width="2" stroke-linejoin="round"/>
    <polygon points="869,393.4 724.8,377.3 724.8,366.1 869.2,381.8" fill="#E4E4E4" stroke="#1C1A17" stroke-width="2.5" stroke-linejoin="round"/>
    <polygon points="619.3,483.7 625.6,484.7 625.2,453.4 618.9,452.5" fill="#9C4F32" stroke="#1C1A17" stroke-width="2" stroke-linejoin="round"/>
    <polygon points="856.8,514.5 846.6,513 849,386.3 859.4,387.4" fill="#E4E4E4" stroke="#1C1A17" stroke-width="2.5" stroke-linejoin="round"/>
    <polygon points="846.6,513 841.1,515.4 843.4,388.1 849,386.3" fill="#E4E4E4" stroke="#1C1A17" stroke-width="2.5" stroke-linejoin="round"/>
    <polygon points="851.3,516.9 856.8,514.5 859.4,387.4 853.8,389.2" fill="#E4E4E4" stroke="#1C1A17" stroke-width="2.5" stroke-linejoin="round"/>
    <polygon points="841.1,515.4 851.3,516.9 853.8,389.2 843.4,388.1" fill="#E4E4E4" stroke="#1C1A17" stroke-width="2.5" stroke-linejoin="round"/>
    <polygon points="724.8,377.3 617.3,408.2 617.1,396.2 724.8,366.1" fill="#E4E4E4" stroke="#1C1A17" stroke-width="2.5" stroke-linejoin="round"/>
    <polygon points="849,386.3 843.4,388.1 853.8,389.2 859.4,387.4" fill="#FFFFFF" stroke="#1C1A17" stroke-width="2.5" stroke-linejoin="round"/>
    <polygon points="724.8,366.1 617.1,396.2 769,414.6 869.2,381.8" fill="#FFFFFF" stroke="#1C1A17" stroke-width="2.5" stroke-linejoin="round"/>
    <polygon points="646.1,531.4 636.2,529.8 634.5,399.1 644.6,400.3" fill="#E4E4E4" stroke="#1C1A17" stroke-width="2.5" stroke-linejoin="round"/>
    <polygon points="636.2,529.8 629.4,532.3 627.6,401.1 634.5,399.1" fill="#E4E4E4" stroke="#1C1A17" stroke-width="2.5" stroke-linejoin="round"/>
    <polygon points="639.3,533.9 646.1,531.4 644.6,400.3 637.7,402.3" fill="#E4E4E4" stroke="#1C1A17" stroke-width="2.5" stroke-linejoin="round"/>
    <polygon points="629.4,532.3 639.3,533.9 637.7,402.3 627.6,401.1" fill="#E4E4E4" stroke="#1C1A17" stroke-width="2.5" stroke-linejoin="round"/>
    <polygon points="634.5,399.1 627.6,401.1 637.7,402.3 644.6,400.3" fill="#FFFFFF" stroke="#1C1A17" stroke-width="2.5" stroke-linejoin="round"/>
    <polygon points="768.9,427.2 869,393.4 869.2,381.8 769,414.6" fill="#E4E4E4" stroke="#1C1A17" stroke-width="2.5" stroke-linejoin="round"/>
    <path d="M 1040.2 550.5 Q 1061.9 397.7 1061.4 244.8 L 1071 244.8 Q 1079 397.7 1061.6 550.5 Z" fill="#C3C3C3" stroke="#1C1A17" stroke-width="2.5" stroke-linejoin="round"/><path d="M 1066.2 244.8 Q 1004.5 191.5 963.3 233.6 Q 1004.5 218.5 1066.2 244.8 Z" fill="#E4E4E4" stroke="#1C1A17" stroke-width="2.5" stroke-linejoin="round"/><path d="M 1066.2 244.8 Q 1011.9 169.5 975.8 204.9 Q 1011.9 196.5 1066.2 244.8 Z" fill="#E4E4E4" stroke="#1C1A17" stroke-width="2.5" stroke-linejoin="round"/><path d="M 1066.2 244.8 Q 1027 151.7 1000.8 181.9 Q 1027 178.7 1066.2 244.8 Z" fill="#E4E4E4" stroke="#1C1A17" stroke-width="2.5" stroke-linejoin="round"/><path d="M 1066.2 244.8 Q 1047.4 140.7 1035 167.5 Q 1047.4 167.7 1066.2 244.8 Z" fill="#E4E4E4" stroke="#1C1A17" stroke-width="2.5" stroke-linejoin="round"/><path d="M 1066.2 244.8 Q 1070.5 138 1073.4 164 Q 1070.5 165 1066.2 244.8 Z" fill="#E4E4E4" stroke="#1C1A17" stroke-width="2.5" stroke-linejoin="round"/><path d="M 1066.2 244.8 Q 1093 143.9 1110.9 171.7 Q 1093 170.9 1066.2 244.8 Z" fill="#E4E4E4" stroke="#1C1A17" stroke-width="2.5" stroke-linejoin="round"/><path d="M 1066.2 244.8 Q 1111.8 157.6 1142.2 189.6 Q 1111.8 184.7 1066.2 244.8 Z" fill="#E4E4E4" stroke="#1C1A17" stroke-width="2.5" stroke-linejoin="round"/><path d="M 1066.2 244.8 Q 1124.2 177.3 1162.9 215.1 Q 1124.2 204.3 1066.2 244.8 Z" fill="#E4E4E4" stroke="#1C1A17" stroke-width="2.5" stroke-linejoin="round"/><path d="M 1066.2 244.8 Q 1128.5 200.2 1170.1 244.8 Q 1128.5 227.2 1066.2 244.8 Z" fill="#E4E4E4" stroke="#1C1A17" stroke-width="2.5" stroke-linejoin="round"/>
    <polygon points="594.2,461.8 96,621.2 531.9,720.5 961.6,514.2" fill="#E4E4E4" stroke="#1C1A17" stroke-width="2.5" stroke-linejoin="round"/>
    <polygon points="553.2,502.2 264.6,599.9 409.4,629.9 685.3,523" fill="#66714F" stroke="#1C1A17" stroke-width="2.5" stroke-linejoin="round"/>
    <polygon points="617.3,408.2 768.9,427.2 769,414.6 617.1,396.2" fill="#E4E4E4" stroke="#1C1A17" stroke-width="2.5" stroke-linejoin="round"/>
    <polygon points="771.7,551.7 761.1,550 761.9,414.6 772.7,415.9" fill="#E4E4E4" stroke="#1C1A17" stroke-width="2.5" stroke-linejoin="round"/>
    <polygon points="761.1,550 754.7,552.7 755.4,416.7 761.9,414.6" fill="#E4E4E4" stroke="#1C1A17" stroke-width="2.5" stroke-linejoin="round"/>
    <polygon points="765.4,554.5 771.7,551.7 772.7,415.9 766.3,418" fill="#E4E4E4" stroke="#1C1A17" stroke-width="2.5" stroke-linejoin="round"/>
    <polygon points="754.7,552.7 765.4,554.5 766.3,418 755.4,416.7" fill="#E4E4E4" stroke="#1C1A17" stroke-width="2.5" stroke-linejoin="round"/>
    <polygon points="761.9,414.6 755.4,416.7 766.3,418 772.7,415.9" fill="#FFFFFF" stroke="#1C1A17" stroke-width="2.5" stroke-linejoin="round"/>
    <polygon points="637.1,412.2 -358.3,705.2 843.5,1078.6 1462,515.8" fill="#C3C3C3" stroke="#1C1A17" stroke-width="2.5" stroke-linejoin="round"/>
    <polygon points="931.2,588.5 707.7,551.6 707.3,367 937.5,392.2" fill="#E4E4E4" stroke="#1C1A17" stroke-width="2.5" stroke-linejoin="round"/>
    <polygon points="691.5,546.7 615.5,577.7 613,420.8 690.8,397.9" fill="#1C1A17" stroke="#1C1A17" stroke-width="2" stroke-linejoin="round"/>
    <polygon points="968.1,392.4 717.8,365.3 717.8,351.2 968.7,377.4" fill="#E4E4E4" stroke="#1C1A17" stroke-width="2.5" stroke-linejoin="round"/>
    <polygon points="877,385.6 677.6,363.8 676.5,192.3 881.2,204" fill="#E4E4E4" stroke="#1C1A17" stroke-width="2.5" stroke-linejoin="round"/>
    <polygon points="828.1,351.9 728,341.8 728.1,241.1 829.8,248.4" fill="#1C1A17" stroke="#1C1A17" stroke-width="2" stroke-linejoin="round"/>
    <polygon points="901.9,202.7 655.6,188.8 655.5,172.9 902.3,185.7" fill="#E4E4E4" stroke="#1C1A17" stroke-width="2.5" stroke-linejoin="round"/>
    <polygon points="661.5,343.9 595.4,360.3 593.3,244.5 660.5,233.2" fill="#1C1A17" stroke="#1C1A17" stroke-width="2" stroke-linejoin="round"/>
    <polygon points="707.7,551.6 493.1,640.9 485.6,428.1 707.3,367" fill="#E4E4E4" stroke="#1C1A17" stroke-width="2.5" stroke-linejoin="round"/>
    <polygon points="677.6,363.8 513.7,407.6 507.8,215.8 676.5,192.3" fill="#E4E4E4" stroke="#1C1A17" stroke-width="2.5" stroke-linejoin="round"/>
    <polygon points="655.6,188.8 457.5,215.5 456.9,197.4 655.5,172.9" fill="#E4E4E4" stroke="#1C1A17" stroke-width="2.5" stroke-linejoin="round"/>
    <polygon points="616.8,588 575.6,605.1 572.1,450 614.4,437" fill="#9C4F32" stroke="#1C1A17" stroke-width="2.5" stroke-linejoin="round"/>
    <polygon points="717.8,365.3 478.5,431.4 477.9,415 717.8,351.2" fill="#E4E4E4" stroke="#1C1A17" stroke-width="2.5" stroke-linejoin="round"/>
    <polygon points="582.1,363.6 529.9,376.7 526.5,255.7 579.7,246.8" fill="#1C1A17" stroke="#1C1A17" stroke-width="2" stroke-linejoin="round"/>
    <polygon points="598.4,584.6 511.2,620.2 505.7,452.5 595.5,426" fill="#1C1A17" stroke="#1C1A17" stroke-width="2" stroke-linejoin="round"/>
    <polygon points="655.5,172.9 456.9,197.4 725.3,214.3 902.3,185.7" fill="#FFFFFF" stroke="#1C1A17" stroke-width="2.5" stroke-linejoin="round"/>
    <polygon points="676.5,192.3 507.8,215.8 728,230.8 881.2,204" fill="#FFFFFF" stroke="#1C1A17" stroke-width="2.5" stroke-linejoin="round"/>
    <polygon points="707.3,367 485.6,428.1 739.6,462.9 937.5,392.2" fill="#FFFFFF" stroke="#1C1A17" stroke-width="2.5" stroke-linejoin="round"/>
    <polygon points="717.8,351.2 477.9,415 757.3,452.1 968.7,377.4" fill="#FFFFFF" stroke="#1C1A17" stroke-width="2.5" stroke-linejoin="round"/>
    <polygon points="727.8,435.2 877,385.6 881.2,204 728,230.8" fill="#E4E4E4" stroke="#1C1A17" stroke-width="2.5" stroke-linejoin="round"/>
    <polygon points="739,691.2 931.2,588.5 937.5,392.2 739.6,462.9" fill="#E4E4E4" stroke="#1C1A17" stroke-width="2.5" stroke-linejoin="round"/>
    <polygon points="725.3,234 901.9,202.7 902.3,185.7 725.3,214.3" fill="#E4E4E4" stroke="#1C1A17" stroke-width="2.5" stroke-linejoin="round"/>
    <polygon points="513.7,407.6 727.8,435.2 728,230.8 507.8,215.8" fill="#E4E4E4" stroke="#1C1A17" stroke-width="2.5" stroke-linejoin="round"/>
    <polygon points="757.2,470 968.1,392.4 968.7,377.4 757.3,452.1" fill="#E4E4E4" stroke="#1C1A17" stroke-width="2.5" stroke-linejoin="round"/>
    <polygon points="457.5,215.5 725.3,234 725.3,214.3 456.9,197.4" fill="#E4E4E4" stroke="#1C1A17" stroke-width="2.5" stroke-linejoin="round"/>
    <polygon points="493.1,640.9 739,691.2 739.6,462.9 485.6,428.1" fill="#E4E4E4" stroke="#1C1A17" stroke-width="2.5" stroke-linejoin="round"/>
    <polygon points="533.1,628.9 685.7,659.2 684.8,497.5 528.6,474.1" fill="#1C1A17" stroke="#1C1A17" stroke-width="2" stroke-linejoin="round"/>
    <polygon points="598.2,657.6 574,668.8 562.5,164.4 588.8,161.5" fill="#E4E4E4" stroke="#1C1A17" stroke-width="2.5" stroke-linejoin="round"/>
    <polygon points="709.4,680.3 598.2,657.6 588.8,161.5 708.4,167.4" fill="#E4E4E4" stroke="#1C1A17" stroke-width="2.5" stroke-linejoin="round"/>
    <polygon points="478.5,431.4 757.2,470 757.3,452.1 477.9,415" fill="#E4E4E4" stroke="#1C1A17" stroke-width="2.5" stroke-linejoin="round"/>
    <polygon points="574,668.8 686.2,692.2 683.4,170.5 562.5,164.4" fill="#E4E4E4" stroke="#1C1A17" stroke-width="2.5" stroke-linejoin="round"/>
    <polygon points="686.2,692.2 709.4,680.3 708.4,167.4 683.4,170.5" fill="#E4E4E4" stroke="#1C1A17" stroke-width="2.5" stroke-linejoin="round"/>
    <path d="M 340.2 713.7 Q 380.5 430.1 319.2 146.4 L 337 146.4 Q 412.2 430.1 379.9 713.7 Z" fill="#C3C3C3" stroke="#1C1A17" stroke-width="2.5" stroke-linejoin="round"/><path d="M 328.1 146.4 Q 213.5 47.4 137.1 125.5 Q 213.5 97.5 328.1 146.4 Z" fill="#E4E4E4" stroke="#1C1A17" stroke-width="2.5" stroke-linejoin="round"/><path d="M 328.1 146.4 Q 227.4 6.5 160.2 72.3 Q 227.4 56.6 328.1 146.4 Z" fill="#E4E4E4" stroke="#1C1A17" stroke-width="2.5" stroke-linejoin="round"/><path d="M 328.1 146.4 Q 255.3 -26.5 206.7 29.5 Q 255.3 23.7 328.1 146.4 Z" fill="#E4E4E4" stroke="#1C1A17" stroke-width="2.5" stroke-linejoin="round"/><path d="M 328.1 146.4 Q 293.3 -46.9 270.1 2.9 Q 293.3 3.3 328.1 146.4 Z" fill="#E4E4E4" stroke="#1C1A17" stroke-width="2.5" stroke-linejoin="round"/><path d="M 328.1 146.4 Q 336.2 -52 341.6 -3.7 Q 336.2 -1.8 328.1 146.4 Z" fill="#E4E4E4" stroke="#1C1A17" stroke-width="2.5" stroke-linejoin="round"/><path d="M 328.1 146.4 Q 377.9 -41 411.1 10.6 Q 377.9 9.2 328.1 146.4 Z" fill="#E4E4E4" stroke="#1C1A17" stroke-width="2.5" stroke-linejoin="round"/><path d="M 328.1 146.4 Q 412.7 -15.4 469.2 43.8 Q 412.7 34.7 328.1 146.4 Z" fill="#E4E4E4" stroke="#1C1A17" stroke-width="2.5" stroke-linejoin="round"/><path d="M 328.1 146.4 Q 435.8 21.1 507.6 91.3 Q 435.8 71.2 328.1 146.4 Z" fill="#E4E4E4" stroke="#1C1A17" stroke-width="2.5" stroke-linejoin="round"/><path d="M 328.1 146.4 Q 443.8 63.5 521 146.4 Q 443.8 113.6 328.1 146.4 Z" fill="#E4E4E4" stroke="#1C1A17" stroke-width="2.5" stroke-linejoin="round"/>
    <polygon points="588.8,161.5 562.5,164.4 683.4,170.5 708.4,167.4" fill="#FFFFFF" stroke="#1C1A17" stroke-width="2.5" stroke-linejoin="round"/>
    <path d="M 735.8 756 Q 768.1 528.5 746.7 300.9 L 761 300.9 Q 793.5 528.5 767.6 756 Z" fill="#C3C3C3" stroke="#1C1A17" stroke-width="2.5" stroke-linejoin="round"/><path d="M 753.8 300.9 Q 661.9 221.5 600.6 284.1 Q 661.9 261.7 753.8 300.9 Z" fill="#E4E4E4" stroke="#1C1A17" stroke-width="2.5" stroke-linejoin="round"/><path d="M 753.8 300.9 Q 673 188.7 619.2 241.5 Q 673 228.9 753.8 300.9 Z" fill="#E4E4E4" stroke="#1C1A17" stroke-width="2.5" stroke-linejoin="round"/><path d="M 753.8 300.9 Q 695.4 162.3 656.5 207.2 Q 695.4 202.5 753.8 300.9 Z" fill="#E4E4E4" stroke="#1C1A17" stroke-width="2.5" stroke-linejoin="round"/><path d="M 753.8 300.9 Q 725.9 145.9 707.3 185.8 Q 725.9 186.1 753.8 300.9 Z" fill="#E4E4E4" stroke="#1C1A17" stroke-width="2.5" stroke-linejoin="round"/><path d="M 753.8 300.9 Q 760.3 141.8 764.6 180.5 Q 760.3 182 753.8 300.9 Z" fill="#E4E4E4" stroke="#1C1A17" stroke-width="2.5" stroke-linejoin="round"/><path d="M 753.8 300.9 Q 793.8 150.6 820.4 192 Q 793.8 190.8 753.8 300.9 Z" fill="#E4E4E4" stroke="#1C1A17" stroke-width="2.5" stroke-linejoin="round"/><path d="M 753.8 300.9 Q 821.7 171.1 867 218.6 Q 821.7 211.3 753.8 300.9 Z" fill="#E4E4E4" stroke="#1C1A17" stroke-width="2.5" stroke-linejoin="round"/><path d="M 753.8 300.9 Q 840.2 200.4 897.8 256.7 Q 840.2 240.6 753.8 300.9 Z" fill="#E4E4E4" stroke="#1C1A17" stroke-width="2.5" stroke-linejoin="round"/><path d="M 753.8 300.9 Q 846.7 234.4 908.6 300.9 Q 846.7 274.6 753.8 300.9 Z" fill="#E4E4E4" stroke="#1C1A17" stroke-width="2.5" stroke-linejoin="round"/>
  </g>
</svg>
