<svg xmlns="http://www.w3.org/2000/svg" viewBox="0 0 1200 800" width="1200" height="800" role="img" aria-label="Architectural study of the property">
  <defs>
    <linearGradient id="sky" x1="0" y1="0" x2="0" y2="1">
      <stop offset="0%" stop-color="#66714F"/>
      <stop offset="78%" stop-color="#F5F1EA"/>
    </linearGradient>
    <clipPath id="frame"><rect width="1200" height="800"/></clipPath>
  </defs>
  <g clip-path="url(#frame)">
    <rect width="1200" height="28.7" fill="url(#sky)"/>
    <rect y="28.7" width="1200" height="771.3" fill="#C3C3C3"/>
    <line x1="0" y1="28.7" x2="1200" y2="28.7" stroke="#1C1A17" stroke-width="2.5"/>
    <rect x="610.5" y="346.7" width="13.1" height="52.5" fill="#A3A3A3" stroke="#1C1A17" stroke-width="2.5"/><polygon points="617,281.1 682.6,351.1 551.4,351.1" fill="#E4E4E4" stroke="#1C1A17" stroke-width="2.5" stroke-linejoin="round"/><polygon points="617,241.8 672.2,311.7 561.8,311.7" fill="#C3C3C3" stroke="#1C1A17" stroke-width="2.5" stroke-linejoin="round"/><polygon points="617,202.4 661.9,272.4 572.2,272.4" fill="#E4E4E4" stroke="#1C1A17" stroke-width="2.5" stroke-linejoin="round"/><polygon points="617,163 651.5,233 582.6,233" fill="#C3C3C3" stroke="#1C1A17" stroke-width="2.5" stroke-linejoin="round"/>
    <rect x="397.6" y="366.6" width="13.3" height="53.3" fill="#A3A3A3" stroke="#1C1A17" stroke-width="2.5"/><polygon points="404.3,300 470.8,371 337.7,371" fill="#E4E4E4" stroke="#1C1A17" stroke-width="2.5" stroke-linejoin="round"/><polygon points="404.3,260.1 460.3,331.1 348.2,331.1" fill="#C3C3C3" stroke="#1C1A17" stroke-width="2.5" stroke-linejoin="round"/><polygon points="404.3,220.1 449.7,291.1 358.8,291.1" fill="#E4E4E4" stroke="#1C1A17" stroke-width="2.5" stroke-linejoin="round"/><polygon points="404.3,180.2 439.2,251.2 369.3,251.2" fill="#C3C3C3" stroke="#1C1A17" stroke-width="2.5" stroke-linejoin="round"/>
    <rect x="510.3" y="356.7" width="17.7" height="70.9" fill="#A3A3A3" stroke="#1C1A17" stroke-width="2.5"/><polygon points="519.1,268 607.8,362.6 430.5,362.6" fill="#E4E4E4" stroke="#1C1A17" stroke-width="2.5" stroke-linejoin="round"/><polygon points="519.1,214.8 593.8,309.4 444.5,309.4" fill="#C3C3C3" stroke="#1C1A17" stroke-width="2.5" stroke-linejoin="round"/><polygon points="519.1,161.6 579.7,256.2 458.6,256.2" fill="#E4E4E4" stroke="#1C1A17" stroke-width="2.5" stroke-linejoin="round"/><polygon points="519.1,108.4 565.7,203 472.6,203" fill="#C3C3C3" stroke="#1C1A17" stroke-width="2.5" stroke-linejoin="round"/>
    <polygon points="714.9,452.3 706.8,452.9 709.8,364 718.1,363.5" fill="#E4E4E4" stroke="#1C1A17" stroke-width="2.5" stroke-linejoin="round"/>
    <polygon points="717.6,455 714.9,452.3 718.1,363.5 720.8,365.7" fill="#E4E4E4" stroke="#1C1A17" stroke-width="2.5" stroke-linejoin="round"/>
    <polygon points="706.8,452.9 709.4,455.6 712.5,366.2 709.8,364" fill="#E4E4E4" stroke="#1C1A17" stroke-width="2.5" stroke-linejoin="round"/>
    <polygon points="709.4,455.6 717.6,455 720.8,365.7 712.5,366.2" fill="#E4E4E4" stroke="#1C1A17" stroke-width="2.5" stroke-linejoin="round"/>
    <polygon points="719.5,361.1 652.6,365.1 652.8,358.3 719.8,354.3" fill="#E4E4E4" stroke="#1C1A17" stroke-width="2.5" stroke-linejoin="round"/>
    <polygon points="720.8,365.7 718.1,363.5 709.8,364 712.5,366.2" fill="#FFFFFF" stroke="#1C1A17" stroke-width="2.5" stroke-linejoin="round"/>
    <polygon points="652.3,455.6 499.6,467.2 496.7,373.5 653.8,364.1" fill="#E4E4E4" stroke="#1C1A17" stroke-width="2.5" stroke-linejoin="round"/>
    <polygon points="1178.8,674.2 757.4,365.3 289.5,393.9 279.9,788.7" fill="#C3C3C3" stroke="#1C1A17" stroke-width="2.5" stroke-linejoin="round"/>
    <polygon points="857.7,537.8 742.4,432.8 628.3,441.2 716.2,551.1" fill="#E4E4E4" stroke="#1C1A17" stroke-width="2.5" stroke-linejoin="round"/>
    <polygon points="674.5,463.9 660.9,448.1 661.8,401.7 675.7,415.9" fill="#1C1A17" stroke="#1C1A17" stroke-width="2" stroke-linejoin="round"/>
    <polygon points="619.3,353.8 561.1,357.2 560.6,310.5 619.6,307.6" fill="#1C1A17" stroke="#1C1A17" stroke-width="2" stroke-linejoin="round"/>
    <polygon points="653.1,367.7 521.3,375.7 519.2,285 654.5,279" fill="#E4E4E4" stroke="#1C1A17" stroke-width="2.5" stroke-linejoin="round"/>
    <polygon points="469.1,488.3 446.1,490.1 445.2,471.9 468.4,470.1" fill="#9C4F32" stroke="#1C1A17" stroke-width="2" stroke-linejoin="round"/>
    <polygon points="713.3,529.2 652.3,455.6 653.8,364.1 717.2,423.8" fill="#E4E4E4" stroke="#1C1A17" stroke-width="2.5" stroke-linejoin="round"/>
    <polygon points="676.4,374 661.9,360.8 662.9,308.5 677.6,319.8" fill="#1C1A17" stroke="#1C1A17" stroke-width="2" stroke-linejoin="round"/>
    <polygon points="687.4,496.2 675.5,481.9 677.4,399.3 689.7,411.3" fill="#9C4F32" stroke="#1C1A17" stroke-width="2.5" stroke-linejoin="round"/>
    <polygon points="796.9,422.2 719.5,361.1 719.8,354.3 797.4,414.3" fill="#E4E4E4" stroke="#1C1A17" stroke-width="2.5" stroke-linejoin="round"/>
    <polygon points="646,283.1 536.3,288 535.9,264.3 646.4,259.8" fill="#E4E4E4" stroke="#1C1A17" stroke-width="2.5" stroke-linejoin="round"/>
    <polygon points="449.4,471.6 443.8,472 442.6,447.7 448.3,447.3" fill="#9C4F32" stroke="#1C1A17" stroke-width="2" stroke-linejoin="round"/>
    <polygon points="797.4,414.3 719.8,354.3 652.8,358.3 719,419.9" fill="#FFFFFF" stroke="#1C1A17" stroke-width="2.5" stroke-linejoin="round"/>
    <polygon points="561.4,285.2 536,286.4 534.3,195.1 560.4,194.3" fill="#E4E4E4" stroke="#1C1A17" stroke-width="2.5" stroke-linejoin="round"/>
    <polygon points="652.6,365.1 718.7,427.8 719,419.9 652.8,358.3" fill="#E4E4E4" stroke="#1C1A17" stroke-width="2.5" stroke-linejoin="round"/>
    <polygon points="566.5,290.3 561.4,285.2 560.4,194.3 565.6,197.7" fill="#E4E4E4" stroke="#1C1A17" stroke-width="2.5" stroke-linejoin="round"/>
    <polygon points="536,286.4 540.7,291.5 539.1,198.4 534.3,195.1" fill="#E4E4E4" stroke="#1C1A17" stroke-width="2.5" stroke-linejoin="round"/>
    <polygon points="480.4,518.6 469.1,488.3 468.4,470.1 479.7,499.4" fill="#9C4F32" stroke="#1C1A17" stroke-width="2" stroke-linejoin="round"/>
    <polygon points="499.6,467.2 535.4,545.2 533.2,437 496.7,373.5" fill="#E4E4E4" stroke="#1C1A17" stroke-width="2.5" stroke-linejoin="round"/>
    <polygon points="717.2,423.8 653.8,364.1 496.7,373.5 533.2,437" fill="#FFFFFF" stroke="#1C1A17" stroke-width="2.5" stroke-linejoin="round"/>
    <polygon points="707.5,419.6 653.1,367.7 654.5,279 710.8,318.5" fill="#E4E4E4" stroke="#1C1A17" stroke-width="2.5" stroke-linejoin="round"/>
    <polygon points="446.1,490.1 455.9,520.7 455,501.4 445.2,471.9" fill="#9C4F32" stroke="#1C1A17" stroke-width="2" stroke-linejoin="round"/>
    <polygon points="635.3,265.5 560.2,268.7 559.9,244.2 635.6,241.4" fill="#E4E4E4" stroke="#1C1A17" stroke-width="2.5" stroke-linejoin="round"/>
    <polygon points="479.7,499.4 468.4,470.1 445.2,471.9 455,501.4" fill="#9C4F32" stroke="#1C1A17" stroke-width="2" stroke-linejoin="round"/>
    <polygon points="540.7,291.5 566.5,290.3 565.6,197.7 539.1,198.4" fill="#E4E4E4" stroke="#1C1A17" stroke-width="2.5" stroke-linejoin="round"/>
    <polygon points="459.5,501.1 449.4,471.6 448.3,447.3 458.3,475.5" fill="#9C4F32" stroke="#1C1A17" stroke-width="2" stroke-linejoin="round"/>
    <polygon points="565.6,197.7 560.4,194.3 534.3,195.1 539.1,198.4" fill="#FFFFFF" stroke="#1C1A17" stroke-width="2.5" stroke-linejoin="round"/>
    <polygon points="443.8,472 453.5,501.6 452.3,475.9 442.6,447.7" fill="#9C4F32" stroke="#1C1A17" stroke-width="2" stroke-linejoin="round"/>
    <polygon points="458.3,475.5 448.3,447.3 442.6,447.7 452.3,475.9" fill="#9C4F32" stroke="#1C1A17" stroke-width="2" stroke-linejoin="round"/>
    <polygon points="706.5,500.8 690.5,482.3 691.9,432.6 708.2,449.3" fill="#1C1A17" stroke="#1C1A17" stroke-width="2" stroke-linejoin="round"/>
    <polygon points="689.4,314.8 646,283.1 646.4,259.8 690.1,288.8" fill="#E4E4E4" stroke="#1C1A17" stroke-width="2.5" stroke-linejoin="round"/>
    <polygon points="521.3,375.7 556.4,430.3 555,326.7 519.2,285" fill="#E4E4E4" stroke="#1C1A17" stroke-width="2.5" stroke-linejoin="round"/>
    <polygon points="710.8,318.5 654.5,279 519.2,285 555,326.7" fill="#FFFFFF" stroke="#1C1A17" stroke-width="2.5" stroke-linejoin="round"/>
    <polygon points="699.1,394.8 682.9,380 684.3,324.9 700.8,337.6" fill="#1C1A17" stroke="#1C1A17" stroke-width="2" stroke-linejoin="round"/>
    <polygon points="778.9,517.3 769.6,518.2 775.1,417.3 784.6,416.6" fill="#E4E4E4" stroke="#1C1A17" stroke-width="2.5" stroke-linejoin="round"/>
    <polygon points="661.3,283.7 635.3,265.5 635.6,241.4 661.8,257.9" fill="#E4E4E4" stroke="#1C1A17" stroke-width="2.5" stroke-linejoin="round"/>
    <polygon points="455.9,520.7 480.4,518.6 479.7,499.4 455,501.4" fill="#9C4F32" stroke="#1C1A17" stroke-width="2" stroke-linejoin="round"/>
    <polygon points="782.4,520.9 778.9,517.3 784.6,416.6 788.3,419.5" fill="#E4E4E4" stroke="#1C1A17" stroke-width="2.5" stroke-linejoin="round"/>
    <polygon points="690.1,288.8 646.4,259.8 535.9,264.3 566.4,294.6" fill="#FFFFFF" stroke="#1C1A17" stroke-width="2.5" stroke-linejoin="round"/>
    <polygon points="769.6,518.2 773.1,521.8 778.7,420.2 775.1,417.3" fill="#E4E4E4" stroke="#1C1A17" stroke-width="2.5" stroke-linejoin="round"/>
    <polygon points="773.1,521.8 782.4,520.9 788.3,419.5 778.7,420.2" fill="#E4E4E4" stroke="#1C1A17" stroke-width="2.5" stroke-linejoin="round"/>
    <polygon points="453.5,501.6 459.5,501.1 458.3,475.5 452.3,475.9" fill="#9C4F32" stroke="#1C1A17" stroke-width="2" stroke-linejoin="round"/>
    <polygon points="536.3,288 566.7,321.1 566.4,294.6 535.9,264.3" fill="#E4E4E4" stroke="#1C1A17" stroke-width="2.5" stroke-linejoin="round"/>
    <polygon points="661.8,257.9 635.6,241.4 559.9,244.2 580.5,261.2" fill="#FFFFFF" stroke="#1C1A17" stroke-width="2.5" stroke-linejoin="round"/>
    <polygon points="560.2,268.7 580.6,287.4 580.5,261.2 559.9,244.2" fill="#E4E4E4" stroke="#1C1A17" stroke-width="2.5" stroke-linejoin="round"/>
    <polygon points="788.3,419.5 784.6,416.6 775.1,417.3 778.7,420.2" fill="#FFFFFF" stroke="#1C1A17" stroke-width="2.5" stroke-linejoin="round"/>
    <polygon points="718.7,427.8 796.9,422.2 797.4,414.3 719,419.9" fill="#E4E4E4" stroke="#1C1A17" stroke-width="2.5" stroke-linejoin="round"/>
    <polygon points="535.4,545.2 713.3,529.2 717.2,423.8 533.2,437" fill="#E4E4E4" stroke="#1C1A17" stroke-width="2.5" stroke-linejoin="round"/>
    <polygon points="580.6,287.4 661.3,283.7 661.8,257.9 580.5,261.2" fill="#E4E4E4" stroke="#1C1A17" stroke-width="2.5" stroke-linejoin="round"/>
    <polygon points="556.4,430.3 707.5,419.6 710.8,318.5 555,326.7" fill="#E4E4E4" stroke="#1C1A17" stroke-width="2.5" stroke-linejoin="round"/>
    <polygon points="566.7,321.1 689.4,314.8 690.1,288.8 566.4,294.6" fill="#E4E4E4" stroke="#1C1A17" stroke-width="2.5" stroke-linejoin="round"/>
    <rect x="590.8" y="528.8" width="22.7" height="90.7" fill="#A3A3A3" stroke="#1C1A17" stroke-width="2.5"/><polygon points="602.1,415.4 715.5,536.4 488.7,536.4" fill="#E4E4E4" stroke="#1C1A17" stroke-width="2.5" stroke-linejoin="round"/><polygon points="602.1,347.4 697.6,468.4 506.6,468.4" fill="#C3C3C3" stroke="#1C1A17" stroke-width="2.5" stroke-linejoin="round"/><polygon points="602.1,279.3 679.6,400.3 524.6,400.3" fill="#E4E4E4" stroke="#1C1A17" stroke-width="2.5" stroke-linejoin="round"/><polygon points="602.1,211.3 661.7,332.2 542.6,332.2" fill="#C3C3C3" stroke="#1C1A17" stroke-width="2.5" stroke-linejoin="round"/>
    <rect x="797.6" y="575.5" width="18" height="72.2" fill="#A3A3A3" stroke="#1C1A17" stroke-width="2.5"/><polygon points="806.6,485.3 896.9,581.5 716.4,581.5" fill="#E4E4E4" stroke="#1C1A17" stroke-width="2.5" stroke-linejoin="round"/><polygon points="806.6,431.2 882.6,527.4 730.7,527.4" fill="#C3C3C3" stroke="#1C1A17" stroke-width="2.5" stroke-linejoin="round"/><polygon points="806.6,377 868.3,473.3 745,473.3" fill="#E4E4E4" stroke="#1C1A17" stroke-width="2.5" stroke-linejoin="round"/><polygon points="806.6,322.9 854,419.1 759.3,419.1" fill="#C3C3C3" stroke="#1C1A17" stroke-width="2.5" stroke-linejoin="round"/>
    <rect x="474.3" y="581.2" width="22.9" height="91.4" fill="#A3A3A3" stroke="#1C1A17" stroke-width="2.5"/><polygon points="485.7,466.9 600.1,588.8 371.4,588.8" fill="#E4E4E4" stroke="#1C1A17" stroke-width="2.5" stroke-linejoin="round"/><polygon points="485.7,398.3 582,520.2 389.5,520.2" fill="#C3C3C3" stroke="#1C1A17" stroke-width="2.5" stroke-linejoin="round"/><polygon points="485.7,329.7 563.9,451.7 407.6,451.7" fill="#E4E4E4" stroke="#1C1A17" stroke-width="2.5" stroke-linejoin="round"/><polygon points="485.7,261.1 545.8,383.1 425.7,383.1" fill="#C3C3C3" stroke="#1C1A17" stroke-width="2.5" stroke-linejoin="round"/>
  </g>
</svg>
