<svg xmlns="http://www.w3.org/2000/svg" viewBox="0 0 1200 800" width="1200" height="800" role="img" aria-label="Architectural study of the property">
  <defs>
    <linearGradient id="sky" x1="0" y1="0" x2="0" y2="1">
      <stop offset="0%" stop-color="#C98FA0"/>
      <stop offset="78%" stop-color="#F6E6EA"/>
    </linearGradient>
    <clipPath id="frame"><rect width="1200" height="800"/></clipPath>
  </defs>
  <g clip-path="url(#frame)">
    <rect width="1200" height="800" fill="url(#sky)"/>
    <polygon points="681.8,391.9 672.7,387.9 673.6,336.2 682.9,339.9" fill="#EFDCE1" stroke="#1A0A0F" stroke-width="2.5" stroke-linejoin="round"/>
    <path d="M 509.3 400.3 Q 526.5 279.3 509 158.3 L 516.6 158.3 Q 540.1 279.3 526.3 400.3 Z" fill="#DCC3CA" stroke="#1A0A0F" stroke-width="2.5" stroke-linejoin="round"/><path d="M 512.8 158.3 Q 463.9 116 431.3 149.3 Q 463.9 137.4 512.8 158.3 Z" fill="#EFDCE1" stroke="#1A0A0F" stroke-width="2.5" stroke-linejoin="round"/><path d="M 512.8 158.3 Q 469.8 98.6 441.2 126.7 Q 469.8 120 512.8 158.3 Z" fill="#EFDCE1" stroke="#1A0A0F" stroke-width="2.5" stroke-linejoin="round"/><path d="M 512.8 158.3 Q 481.7 84.5 461 108.4 Q 481.7 105.9 512.8 158.3 Z" fill="#EFDCE1" stroke="#1A0A0F" stroke-width="2.5" stroke-linejoin="round"/><path d="M 512.8 158.3 Q 497.9 75.8 488 97.1 Q 497.9 97.2 512.8 158.3 Z" fill="#EFDCE1" stroke="#1A0A0F" stroke-width="2.5" stroke-linejoin="round"/><path d="M 512.8 158.3 Q 516.2 73.6 518.5 94.2 Q 516.2 95 512.8 158.3 Z" fill="#EFDCE1" stroke="#1A0A0F" stroke-width="2.5" stroke-linejoin="round"/><path d="M 512.8 158.3 Q 534 78.3 548.2 100.3 Q 534 99.7 512.8 158.3 Z" fill="#EFDCE1" stroke="#1A0A0F" stroke-width="2.5" stroke-linejoin="round"/><path d="M 512.8 158.3 Q 548.9 89.2 573 114.5 Q 548.9 110.6 512.8 158.3 Z" fill="#EFDCE1" stroke="#1A0A0F" stroke-width="2.5" stroke-linejoin="round"/><path d="M 512.8 158.3 Q 558.7 104.8 589.4 134.8 Q 558.7 126.2 512.8 158.3 Z" fill="#EFDCE1" stroke="#1A0A0F" stroke-width="2.5" stroke-linejoin="round"/><path d="M 512.8 158.3 Q 562.2 122.9 595.1 158.3 Q 562.2 144.3 512.8 158.3 Z" fill="#EFDCE1" stroke="#1A0A0F" stroke-width="2.5" stroke-linejoin="round"/>
    <path d="M 787.4 400.8 Q 806.1 268.4 805.5 136.1 L 813.8 136.1 Q 821 268.4 805.9 400.8 Z" fill="#DCC3CA" stroke="#1A0A0F" stroke-width="2.5" stroke-linejoin="round"/><path d="M 809.6 136.1 Q 756.2 89.9 720.5 126.3 Q 756.2 113.3 809.6 136.1 Z" fill="#EFDCE1" stroke="#1A0A0F" stroke-width="2.5" stroke-linejoin="round"/><path d="M 809.6 136.1 Q 762.6 70.8 731.3 101.5 Q 762.6 94.2 809.6 136.1 Z" fill="#EFDCE1" stroke="#1A0A0F" stroke-width="2.5" stroke-linejoin="round"/><path d="M 809.6 136.1 Q 775.6 55.4 753 81.5 Q 775.6 78.8 809.6 136.1 Z" fill="#EFDCE1" stroke="#1A0A0F" stroke-width="2.5" stroke-linejoin="round"/><path d="M 809.6 136.1 Q 793.4 45.9 782.6 69.1 Q 793.4 69.3 809.6 136.1 Z" fill="#EFDCE1" stroke="#1A0A0F" stroke-width="2.5" stroke-linejoin="round"/><path d="M 809.6 136.1 Q 813.4 43.5 815.9 66.1 Q 813.4 66.9 809.6 136.1 Z" fill="#EFDCE1" stroke="#1A0A0F" stroke-width="2.5" stroke-linejoin="round"/><path d="M 809.6 136.1 Q 832.9 48.7 848.4 72.7 Q 832.9 72.1 809.6 136.1 Z" fill="#EFDCE1" stroke="#1A0A0F" stroke-width="2.5" stroke-linejoin="round"/><path d="M 809.6 136.1 Q 849.1 60.6 875.4 88.2 Q 849.1 84 809.6 136.1 Z" fill="#EFDCE1" stroke="#1A0A0F" stroke-width="2.5" stroke-linejoin="round"/><path d="M 809.6 136.1 Q 859.9 77.6 893.4 110.4 Q 859.9 101 809.6 136.1 Z" fill="#EFDCE1" stroke="#1A0A0F" stroke-width="2.5" stroke-linejoin="round"/><path d="M 809.6 136.1 Q 863.6 97.4 899.6 136.1 Q 863.6 120.8 809.6 136.1 Z" fill="#EFDCE1" stroke="#1A0A0F" stroke-width="2.5" stroke-linejoin="round"/>
    <polygon points="703.2,395.7 676.2,401.8 677.6,325.6 705.1,320.3" fill="#1A0A0F" stroke="#1A0A0F" stroke-width="2" stroke-linejoin="round"/>
    <polygon points="721.7,409.5 616.5,434 617.1,276.6 726.3,258" fill="#EFDCE1" stroke="#1A0A0F" stroke-width="2.5" stroke-linejoin="round"/>
    <polygon points="661.4,405.2 633.5,411.5 634.1,334.1 662.6,328.5" fill="#1A0A0F" stroke="#1A0A0F" stroke-width="2" stroke-linejoin="round"/>
    <polygon points="672.7,387.9 212.9,488.7 206.9,428.7 673.6,336.2" fill="#EFDCE1" stroke="#1A0A0F" stroke-width="2.5" stroke-linejoin="round"/>
    <polygon points="219.7,494.4 681.8,391.9 682.9,339.9 213.8,433.9" fill="#EFDCE1" stroke="#1A0A0F" stroke-width="2.5" stroke-linejoin="round"/>
    <polygon points="727.2,256.2 609.1,276.2 609.2,256.3 727.8,237.2" fill="#EFDCE1" stroke="#1A0A0F" stroke-width="2.5" stroke-linejoin="round"/>
    <polygon points="673.6,336.2 206.9,428.7 213.8,433.9 682.9,339.9" fill="#FFFBFC" stroke="#1A0A0F" stroke-width="2.5" stroke-linejoin="round"/>
    <polygon points="772.5,307.2 -103,477.2 184.1,881.7 1300.9,490" fill="#DCC3CA" stroke="#1A0A0F" stroke-width="2.5" stroke-linejoin="round"/>
    <polygon points="695.8,388.9 226.6,492.9 314,565.5 811.3,438.9" fill="#EFDCE1" stroke="#1A0A0F" stroke-width="2.5" stroke-linejoin="round"/>
    <polygon points="919.4,496.5 721.7,409.5 726.3,258 933.5,324.3" fill="#EFDCE1" stroke="#1A0A0F" stroke-width="2.5" stroke-linejoin="round"/>
    <polygon points="653,430.9 689.1,448.4 690.8,372.8 654,357.2" fill="#1A0A0F" stroke="#1A0A0F" stroke-width="2" stroke-linejoin="round"/>
    <polygon points="942.7,324.7 727.2,256.2 727.8,237.2 944.6,302.9" fill="#EFDCE1" stroke="#1A0A0F" stroke-width="2.5" stroke-linejoin="round"/>
    <polygon points="458.2,479.5 438.1,466.9 437.1,442.1 457.3,454.3" fill="#8E4257" stroke="#1A0A0F" stroke-width="2" stroke-linejoin="round"/>
    <polygon points="438.1,466.9 347.1,487.8 345.5,462.3 437.1,442.1" fill="#8E4257" stroke="#1A0A0F" stroke-width="2" stroke-linejoin="round"/>
    <polygon points="726.3,258 617.1,276.6 816.7,349.5 933.5,324.3" fill="#FFFBFC" stroke="#1A0A0F" stroke-width="2.5" stroke-linejoin="round"/>
    <polygon points="456.2,453.6 452.6,451.5 451.5,420.4 455,422.4" fill="#8E4257" stroke="#1A0A0F" stroke-width="2" stroke-linejoin="round"/>
    <polygon points="616.5,434 807,529.4 816.7,349.5 617.1,276.6" fill="#EFDCE1" stroke="#1A0A0F" stroke-width="2.5" stroke-linejoin="round"/>
    <polygon points="727.8,237.2 609.2,256.3 817.3,329.3 944.6,302.9" fill="#FFFBFC" stroke="#1A0A0F" stroke-width="2.5" stroke-linejoin="round"/>
    <polygon points="437.1,442.1 345.5,462.3 364.5,475.3 457.3,454.3" fill="#8E4257" stroke="#1A0A0F" stroke-width="2" stroke-linejoin="round"/>
    <polygon points="212.9,488.7 219.7,494.4 213.8,433.9 206.9,428.7" fill="#EFDCE1" stroke="#1A0A0F" stroke-width="2.5" stroke-linejoin="round"/>
    <polygon points="339.8,456.7 285.8,468.5 280,395.7 335,385.1" fill="#1A0A0F" stroke="#1A0A0F" stroke-width="2" stroke-linejoin="round"/>
    <polygon points="366,501.2 458.2,479.5 457.3,454.3 364.5,475.3" fill="#8E4257" stroke="#1A0A0F" stroke-width="2" stroke-linejoin="round"/>
    <polygon points="337.4,480.3 287.1,491.7 278,378.7 330,369.1" fill="#8E4257" stroke="#1A0A0F" stroke-width="2.5" stroke-linejoin="round"/>
    <polygon points="367.9,474.5 256,499.8 242.3,345.4 359,325.4" fill="#EFDCE1" stroke="#1A0A0F" stroke-width="2.5" stroke-linejoin="round"/>
    <polygon points="452.6,451.5 360.1,472.3 358.1,440.3 451.5,420.4" fill="#8E4257" stroke="#1A0A0F" stroke-width="2" stroke-linejoin="round"/>
    <polygon points="363.4,474.6 456.2,453.6 455,422.4 361.4,442.4" fill="#8E4257" stroke="#1A0A0F" stroke-width="2" stroke-linejoin="round"/>
    <polygon points="347.1,487.8 366,501.2 364.5,475.3 345.5,462.3" fill="#8E4257" stroke="#1A0A0F" stroke-width="2" stroke-linejoin="round"/>
    <polygon points="451.5,420.4 358.1,440.3 361.4,442.4 455,422.4" fill="#8E4257" stroke="#1A0A0F" stroke-width="2" stroke-linejoin="round"/>
    <polygon points="609.1,276.2 816,352.3 817.3,329.3 609.2,256.3" fill="#EFDCE1" stroke="#1A0A0F" stroke-width="2.5" stroke-linejoin="round"/>
    <polygon points="360.1,472.3 363.4,474.6 361.4,442.4 358.1,440.3" fill="#8E4257" stroke="#1A0A0F" stroke-width="2" stroke-linejoin="round"/>
    <polygon points="431.4,493 397.5,470.8 394.1,403.9 428.4,424.1" fill="#1A0A0F" stroke="#1A0A0F" stroke-width="2" stroke-linejoin="round"/>
    <polygon points="461.3,538.1 367.9,474.5 359,325.4 455.4,375.8" fill="#EFDCE1" stroke="#1A0A0F" stroke-width="2.5" stroke-linejoin="round"/>
    <polygon points="699.9,479.9 643,494.7 643.9,410.5 702,397.4" fill="#1A0A0F" stroke="#1A0A0F" stroke-width="2" stroke-linejoin="round"/>
    <polygon points="807,529.4 919.4,496.5 933.5,324.3 816.7,349.5" fill="#EFDCE1" stroke="#1A0A0F" stroke-width="2.5" stroke-linejoin="round"/>
    <polygon points="830.9,541.4 736.3,494 742.3,322.3 841.8,358.7" fill="#EFDCE1" stroke="#1A0A0F" stroke-width="2.5" stroke-linejoin="round"/>
    <polygon points="359,325.4 242.3,345.4 330.2,400.5 455.4,375.8" fill="#FFFBFC" stroke="#1A0A0F" stroke-width="2.5" stroke-linejoin="round"/>
    <polygon points="256,499.8 341.6,569 330.2,400.5 242.3,345.4" fill="#EFDCE1" stroke="#1A0A0F" stroke-width="2.5" stroke-linejoin="round"/>
    <polygon points="816,352.3 942.7,324.7 944.6,302.9 817.3,329.3" fill="#EFDCE1" stroke="#1A0A0F" stroke-width="2.5" stroke-linejoin="round"/>
    <polygon points="851.7,359.3 743.3,319.9 744,298.2 853.1,336" fill="#EFDCE1" stroke="#1A0A0F" stroke-width="2.5" stroke-linejoin="round"/>
    <polygon points="610.3,503.2 549.1,519.1 547.9,432.2 610.5,418" fill="#1A0A0F" stroke="#1A0A0F" stroke-width="2" stroke-linejoin="round"/>
    <polygon points="736.3,494 396,585.7 385.7,393 742.3,322.3" fill="#EFDCE1" stroke="#1A0A0F" stroke-width="2.5" stroke-linejoin="round"/>
    <polygon points="341.6,569 461.3,538.1 455.4,375.8 330.2,400.5" fill="#EFDCE1" stroke="#1A0A0F" stroke-width="2.5" stroke-linejoin="round"/>
    <polygon points="743.3,319.9 375.7,392.3 374.4,367.8 744,298.2" fill="#EFDCE1" stroke="#1A0A0F" stroke-width="2.5" stroke-linejoin="round"/>
    <polygon points="513.8,528.3 447.7,545.4 444.2,455.6 511.8,440.3" fill="#1A0A0F" stroke="#1A0A0F" stroke-width="2" stroke-linejoin="round"/>
    <polygon points="742.3,322.3 385.7,393 469.5,441.6 841.8,358.7" fill="#FFFBFC" stroke="#1A0A0F" stroke-width="2.5" stroke-linejoin="round"/>
    <polygon points="744,298.2 374.4,367.8 465.5,418.9 853.1,336" fill="#FFFBFC" stroke="#1A0A0F" stroke-width="2.5" stroke-linejoin="round"/>
    <path d="M 287.7 603.5 Q 308.4 457.7 270 311.8 L 279.2 311.8 Q 324.7 457.7 308.1 603.5 Z" fill="#DCC3CA" stroke="#1A0A0F" stroke-width="2.5" stroke-linejoin="round"/><path d="M 274.6 311.8 Q 215.7 260.9 176.4 301 Q 215.7 286.7 274.6 311.8 Z" fill="#EFDCE1" stroke="#1A0A0F" stroke-width="2.5" stroke-linejoin="round"/><path d="M 274.6 311.8 Q 222.8 239.9 188.3 273.7 Q 222.8 265.6 274.6 311.8 Z" fill="#EFDCE1" stroke="#1A0A0F" stroke-width="2.5" stroke-linejoin="round"/><path d="M 274.6 311.8 Q 237.1 222.9 212.2 251.7 Q 237.1 248.7 274.6 311.8 Z" fill="#EFDCE1" stroke="#1A0A0F" stroke-width="2.5" stroke-linejoin="round"/><path d="M 274.6 311.8 Q 256.7 212.4 244.8 238 Q 256.7 238.2 274.6 311.8 Z" fill="#EFDCE1" stroke="#1A0A0F" stroke-width="2.5" stroke-linejoin="round"/><path d="M 274.6 311.8 Q 278.7 209.8 281.5 234.6 Q 278.7 235.6 274.6 311.8 Z" fill="#EFDCE1" stroke="#1A0A0F" stroke-width="2.5" stroke-linejoin="round"/><path d="M 274.6 311.8 Q 300.2 215.4 317.3 242 Q 300.2 241.2 274.6 311.8 Z" fill="#EFDCE1" stroke="#1A0A0F" stroke-width="2.5" stroke-linejoin="round"/><path d="M 274.6 311.8 Q 318.1 228.6 347.1 259 Q 318.1 254.4 274.6 311.8 Z" fill="#EFDCE1" stroke="#1A0A0F" stroke-width="2.5" stroke-linejoin="round"/><path d="M 274.6 311.8 Q 330 247.3 366.9 283.5 Q 330 273.1 274.6 311.8 Z" fill="#EFDCE1" stroke="#1A0A0F" stroke-width="2.5" stroke-linejoin="round"/><path d="M 274.6 311.8 Q 334.1 269.2 373.8 311.8 Q 334.1 294.9 274.6 311.8 Z" fill="#EFDCE1" stroke="#1A0A0F" stroke-width="2.5" stroke-linejoin="round"/>
    <polygon points="476.3,648.2 830.9,541.4 841.8,358.7 469.5,441.6" fill="#EFDCE1" stroke="#1A0A0F" stroke-width="2.5" stroke-linejoin="round"/>
    <polygon points="466.4,445.5 851.7,359.3 853.1,336 465.5,418.9" fill="#EFDCE1" stroke="#1A0A0F" stroke-width="2.5" stroke-linejoin="round"/>
    <polygon points="396,585.7 476.3,648.2 469.5,441.6 385.7,393" fill="#EFDCE1" stroke="#1A0A0F" stroke-width="2.5" stroke-linejoin="round"/>
    <polygon points="375.7,392.3 466.4,445.5 465.5,418.9 374.4,367.8" fill="#EFDCE1" stroke="#1A0A0F" stroke-width="2.5" stroke-linejoin="round"/>
  </g>
</svg>
